<svg width="739" height="285" viewBox="0 0 739 285" fill="none" xmlns="http://www.w3.org/2000/svg">
<path d="M41.195 30.3401C44.802 31.1088 47.6994 32.9123 49.8872 35.7506C52.0751 38.5298 53.169 41.7228 53.169 45.3298C53.169 50.5333 51.3359 54.6724 47.6698 57.7472C44.0629 60.7629 39.0072 62.2708 32.5028 62.2708H3.49916V0.00606756H31.5271C37.8541 0.00606756 42.7915 1.45477 46.3394 4.35217C49.9464 7.24958 51.7499 11.1818 51.7499 16.1488C51.7499 19.8149 50.7742 22.8601 48.8229 25.2845C46.9307 27.7088 44.3881 29.3941 41.195 30.3401ZM18.6662 25.1958H28.6002C31.0837 25.1958 32.9758 24.6636 34.2767 23.5992C35.6367 22.4758 36.3167 20.8497 36.3167 18.721C36.3167 16.5922 35.6367 14.9661 34.2767 13.8427C32.9758 12.7192 31.0837 12.1574 28.6002 12.1574H18.6662V25.1958ZM29.8419 50.0307C32.3845 50.0307 34.3358 49.4689 35.6959 48.3455C37.115 47.1628 37.8246 45.4776 37.8246 43.2898C37.8246 41.1019 37.0854 39.3871 35.6072 38.1454C34.188 36.9037 32.2071 36.2828 29.6645 36.2828H18.6662V50.0307H29.8419ZM108.62 36.7263C108.62 38.1454 108.531 39.6237 108.354 41.1611H74.0285C74.265 44.2359 75.2407 46.6011 76.9555 48.2568C78.7294 49.8533 80.8877 50.6516 83.4303 50.6516C87.2147 50.6516 89.846 49.055 91.3243 45.862H107.467C106.639 49.1142 105.131 52.0411 102.943 54.6429C100.815 57.2446 98.1243 59.2846 94.8721 60.7629C91.6199 62.2412 87.9834 62.9803 83.9625 62.9803C79.1138 62.9803 74.7972 61.9455 71.0129 59.876C67.2285 57.8064 64.2719 54.8498 62.1432 51.0063C60.0145 47.1628 58.9502 42.6689 58.9502 37.5245C58.9502 32.3802 59.985 27.8862 62.0545 24.0427C64.1832 20.1992 67.1398 17.2427 70.9242 15.1731C74.7085 13.1035 79.0546 12.0687 83.9625 12.0687C88.7521 12.0687 93.0095 13.074 96.7347 15.0844C100.46 17.0949 103.357 19.9627 105.427 23.6879C107.556 27.4132 108.62 31.7593 108.62 36.7263ZM93.0982 32.7349C93.0982 30.1332 92.2112 28.0636 90.4373 26.5262C88.6634 24.9888 86.446 24.2201 83.7851 24.2201C81.2425 24.2201 79.0842 24.9592 77.3103 26.4375C75.5955 27.9158 74.5311 30.0149 74.1172 32.7349H93.0982ZM136.755 62.9803C132.439 62.9803 128.595 62.2412 125.225 60.7629C121.854 59.2846 119.194 57.2742 117.242 54.7316C115.291 52.1298 114.197 49.2324 113.96 46.0394H128.95C129.128 47.7542 129.926 49.1437 131.345 50.2081C132.764 51.2724 134.508 51.8046 136.578 51.8046C138.47 51.8046 139.919 51.4498 140.924 50.7403C141.988 49.9716 142.521 48.9959 142.521 47.8133C142.521 46.3941 141.782 45.3594 140.303 44.7089C138.825 43.9993 136.43 43.2306 133.119 42.4028C129.571 41.575 126.614 40.7176 124.249 39.8306C121.884 38.8845 119.844 37.4358 118.129 35.4845C116.414 33.4741 115.557 30.7836 115.557 27.4132C115.557 24.5749 116.326 22.0027 117.863 19.6966C119.46 17.3314 121.766 15.4688 124.781 14.1088C127.856 12.7487 131.493 12.0687 135.691 12.0687C141.9 12.0687 146.778 13.6061 150.326 16.6809C153.933 19.7557 156.002 23.8358 156.535 28.921H142.521C142.284 27.2062 141.515 25.8462 140.215 24.841C138.973 23.8358 137.317 23.3332 135.248 23.3332C133.474 23.3332 132.114 23.6879 131.168 24.3975C130.221 25.0479 129.748 25.9645 129.748 27.1471C129.748 28.5662 130.488 29.6306 131.966 30.3401C133.503 31.0497 135.868 31.7593 139.061 32.4689C142.728 33.4149 145.714 34.361 148.02 35.3071C150.326 36.1941 152.336 37.6724 154.051 39.7419C155.825 41.7524 156.742 44.4724 156.801 47.902C156.801 50.7994 155.973 53.4011 154.317 55.7072C152.721 57.9542 150.385 59.7281 147.31 61.029C144.295 62.3299 140.776 62.9803 136.755 62.9803ZM193.664 49.4098V62.2708H185.948C180.449 62.2708 176.162 60.9403 173.087 58.2794C170.012 55.5594 168.475 51.1542 168.475 45.0637V25.3732H162.443V12.7783H168.475V0.715638H183.642V12.7783H193.576V25.3732H183.642V45.2411C183.642 46.7194 183.996 47.7837 184.706 48.4342C185.416 49.0846 186.598 49.4098 188.254 49.4098H193.664ZM236.076 0.00606756V62.2708H220.909V0.00606756H236.076ZM277.224 12.2461C283.019 12.2461 287.631 14.1383 291.06 17.9227C294.549 21.6479 296.293 26.7923 296.293 33.3558V62.2708H281.215V35.3958C281.215 32.0845 280.358 29.5123 278.643 27.6793C276.928 25.8462 274.622 24.9297 271.725 24.9297C268.827 24.9297 266.521 25.8462 264.806 27.6793C263.091 29.5123 262.234 32.0845 262.234 35.3958V62.2708H247.067V12.7783H262.234V19.3418C263.771 17.154 265.841 15.4392 268.443 14.1974C271.045 12.8966 273.972 12.2461 277.224 12.2461ZM329.096 48.0794L339.828 12.7783H355.971L338.409 62.2708H319.694L302.132 12.7783H318.363L329.096 48.0794ZM409.009 36.7263C409.009 38.1454 408.92 39.6237 408.743 41.1611H374.417C374.654 44.2359 375.63 46.6011 377.344 48.2568C379.118 49.8533 381.277 50.6516 383.819 50.6516C387.604 50.6516 390.235 49.055 391.713 45.862H407.856C407.028 49.1142 405.52 52.0411 403.332 54.6429C401.204 57.2446 398.513 59.2846 395.261 60.7629C392.009 62.2412 388.372 62.9803 384.351 62.9803C379.503 62.9803 375.186 61.9455 371.402 59.876C367.617 57.8064 364.661 54.8498 362.532 51.0063C360.403 47.1628 359.339 42.6689 359.339 37.5245C359.339 32.3802 360.374 27.8862 362.443 24.0427C364.572 20.1992 367.529 17.2427 371.313 15.1731C375.097 13.1035 379.443 12.0687 384.351 12.0687C389.141 12.0687 393.398 13.074 397.124 15.0844C400.849 17.0949 403.746 19.9627 405.816 23.6879C407.945 27.4132 409.009 31.7593 409.009 36.7263ZM393.487 32.7349C393.487 30.1332 392.6 28.0636 390.826 26.5262C389.052 24.9888 386.835 24.2201 384.174 24.2201C381.631 24.2201 379.473 24.9592 377.699 26.4375C375.984 27.9158 374.92 30.0149 374.506 32.7349H393.487ZM437.144 62.9803C432.828 62.9803 428.984 62.2412 425.614 60.7629C422.243 59.2846 419.582 57.2742 417.631 54.7316C415.68 52.1298 414.586 49.2324 414.349 46.0394H429.339C429.516 47.7542 430.315 49.1437 431.734 50.2081C433.153 51.2724 434.897 51.8046 436.967 51.8046C438.859 51.8046 440.308 51.4498 441.313 50.7403C442.377 49.9716 442.909 48.9959 442.909 47.8133C442.909 46.3941 442.17 45.3594 440.692 44.7089C439.214 43.9993 436.819 43.2306 433.508 42.4028C429.96 41.575 427.003 40.7176 424.638 39.8306C422.273 38.8845 420.233 37.4358 418.518 35.4845C416.803 33.4741 415.946 30.7836 415.946 27.4132C415.946 24.5749 416.715 22.0027 418.252 19.6966C419.848 17.3314 422.155 15.4688 425.17 14.1088C428.245 12.7487 431.882 12.0687 436.08 12.0687C442.289 12.0687 447.167 13.6061 450.715 16.6809C454.322 19.7557 456.391 23.8358 456.923 28.921H442.909C442.673 27.2062 441.904 25.8462 440.603 24.841C439.362 23.8358 437.706 23.3332 435.636 23.3332C433.862 23.3332 432.502 23.6879 431.556 24.3975C430.61 25.0479 430.137 25.9645 430.137 27.1471C430.137 28.5662 430.876 29.6306 432.355 30.3401C433.892 31.0497 436.257 31.7593 439.45 32.4689C443.116 33.4149 446.103 34.361 448.409 35.3071C450.715 36.1941 452.725 37.6724 454.44 39.7419C456.214 41.7524 457.13 44.4724 457.19 47.902C457.19 50.7994 456.362 53.4011 454.706 55.7072C453.11 57.9542 450.774 59.7281 447.699 61.029C444.683 62.3299 441.165 62.9803 437.144 62.9803ZM494.053 49.4098V62.2708H486.337C480.837 62.2708 476.55 60.9403 473.476 58.2794C470.401 55.5594 468.863 51.1542 468.863 45.0637V25.3732H462.832V12.7783H468.863V0.715638H484.031V12.7783H493.965V25.3732H484.031V45.2411C484.031 46.7194 484.385 47.7837 485.095 48.4342C485.804 49.0846 486.987 49.4098 488.643 49.4098H494.053ZM565.653 12.2461C571.803 12.2461 576.681 14.1088 580.288 17.834C583.954 21.5592 585.787 26.7332 585.787 33.3558V62.2708H570.709V35.3958C570.709 32.2028 569.851 29.7488 568.137 28.034C566.481 26.2601 564.175 25.3732 561.218 25.3732C558.262 25.3732 555.926 26.2601 554.211 28.034C552.556 29.7488 551.728 32.2028 551.728 35.3958V62.2708H536.65V35.3958C536.65 32.2028 535.792 29.7488 534.077 28.034C532.422 26.2601 530.116 25.3732 527.159 25.3732C524.202 25.3732 521.867 26.2601 520.152 28.034C518.496 29.7488 517.669 32.2028 517.669 35.3958V62.2708H502.502V12.7783H517.669V18.987C519.206 16.9175 521.216 15.2914 523.7 14.1088C526.183 12.867 528.992 12.2461 532.126 12.2461C535.851 12.2461 539.163 13.0444 542.06 14.6409C545.017 16.2375 547.323 18.514 548.978 21.4705C550.693 18.7505 553.029 16.5331 555.985 14.8183C558.942 13.1035 562.164 12.2461 565.653 12.2461ZM643.049 36.7263C643.049 38.1454 642.96 39.6237 642.783 41.1611H608.457C608.694 44.2359 609.67 46.6011 611.384 48.2568C613.158 49.8533 615.317 50.6516 617.859 50.6516C621.644 50.6516 624.275 49.055 625.753 45.862H641.896C641.068 49.1142 639.56 52.0411 637.372 54.6429C635.244 57.2446 632.553 59.2846 629.301 60.7629C626.049 62.2412 622.412 62.9803 618.391 62.9803C613.543 62.9803 609.226 61.9455 605.442 59.876C601.657 57.8064 598.701 54.8498 596.572 51.0063C594.443 47.1628 593.379 42.6689 593.379 37.5245C593.379 32.3802 594.414 27.8862 596.483 24.0427C598.612 20.1992 601.569 17.2427 605.353 15.1731C609.137 13.1035 613.483 12.0687 618.391 12.0687C623.181 12.0687 627.438 13.074 631.164 15.0844C634.889 17.0949 637.786 19.9627 639.856 23.6879C641.984 27.4132 643.049 31.7593 643.049 36.7263ZM627.527 32.7349C627.527 30.1332 626.64 28.0636 624.866 26.5262C623.092 24.9888 620.875 24.2201 618.214 24.2201C615.671 24.2201 613.513 24.9592 611.739 26.4375C610.024 27.9158 608.96 30.0149 608.546 32.7349H627.527ZM681.207 12.2461C687.002 12.2461 691.614 14.1383 695.043 17.9227C698.532 21.6479 700.277 26.7923 700.277 33.3558V62.2708H685.198V35.3958C685.198 32.0845 684.341 29.5123 682.626 27.6793C680.911 25.8462 678.605 24.9297 675.708 24.9297C672.81 24.9297 670.504 25.8462 668.789 27.6793C667.075 29.5123 666.217 32.0845 666.217 35.3958V62.2708H651.05V12.7783H666.217V19.3418C667.755 17.154 669.824 15.4392 672.426 14.1974C675.028 12.8966 677.955 12.2461 681.207 12.2461ZM738.401 49.4098V62.2708H730.684C725.185 62.2708 720.898 60.9403 717.823 58.2794C714.748 55.5594 713.211 51.1542 713.211 45.0637V25.3732H707.18V12.7783H713.211V0.715638H728.378V12.7783H738.312V25.3732H728.378V45.2411C728.378 46.7194 728.733 47.7837 729.442 48.4342C730.152 49.0846 731.334 49.4098 732.99 49.4098H738.401ZM44.0333 99.0061V111.157H18.6662V124.284H37.6472V136.081H18.6662V161.271H3.49916V99.0061H44.0333ZM74.5337 161.98C69.685 161.98 65.3093 160.946 61.4066 158.876C57.5631 156.806 54.5179 153.85 52.2709 150.006C50.0831 146.163 48.9892 141.669 48.9892 136.525C48.9892 131.439 50.1127 126.975 52.3596 123.131C54.6066 119.229 57.6814 116.243 61.584 114.173C65.4867 112.104 69.8623 111.069 74.7111 111.069C79.5598 111.069 83.9355 112.104 87.8381 114.173C91.7407 116.243 94.8155 119.229 97.0625 123.131C99.3095 126.975 100.433 131.439 100.433 136.525C100.433 141.61 99.2799 146.104 96.9738 150.006C94.7268 153.85 91.6225 156.806 87.6607 158.876C83.7581 160.946 79.3824 161.98 74.5337 161.98ZM74.5337 148.853C77.4311 148.853 79.885 147.789 81.8955 145.66C83.965 143.532 84.9998 140.486 84.9998 136.525C84.9998 132.563 83.9946 129.518 81.9841 127.389C80.0328 125.26 77.6085 124.196 74.7111 124.196C71.7545 124.196 69.3006 125.26 67.3493 127.389C65.398 129.458 64.4223 132.504 64.4223 136.525C64.4223 140.486 65.3684 143.532 67.2606 145.66C69.2119 147.789 71.6363 148.853 74.5337 148.853ZM123.646 120.027C125.42 117.307 127.638 115.178 130.299 113.641C132.959 112.044 135.916 111.246 139.168 111.246V127.3H134.999C131.215 127.3 128.377 128.128 126.485 129.784C124.592 131.38 123.646 134.218 123.646 138.298V161.271H108.479V111.778H123.646V120.027ZM202.91 129.34C206.517 130.109 209.414 131.912 211.602 134.751C213.79 137.53 214.884 140.723 214.884 144.33C214.884 149.533 213.05 153.672 209.384 156.747C205.777 159.763 200.722 161.271 194.217 161.271H165.214V99.0061H193.242C199.569 99.0061 204.506 100.455 208.054 103.352C211.661 106.25 213.464 110.182 213.464 115.149C213.464 118.815 212.489 121.86 210.537 124.284C208.645 126.709 206.103 128.394 202.91 129.34ZM180.381 124.196H190.315C192.798 124.196 194.69 123.664 195.991 122.599C197.351 121.476 198.031 119.85 198.031 117.721C198.031 115.592 197.351 113.966 195.991 112.843C194.69 111.719 192.798 111.157 190.315 111.157H180.381V124.196ZM191.556 149.031C194.099 149.031 196.05 148.469 197.41 147.345C198.83 146.163 199.539 144.478 199.539 142.29C199.539 140.102 198.8 138.387 197.322 137.145C195.903 135.904 193.922 135.283 191.379 135.283H180.381V149.031H191.556ZM270.335 135.726C270.335 137.145 270.246 138.624 270.068 140.161H235.743C235.98 143.236 236.955 145.601 238.67 147.257C240.444 148.853 242.602 149.652 245.145 149.652C248.929 149.652 251.561 148.055 253.039 144.862H269.181C268.354 148.114 266.846 151.041 264.658 153.643C262.529 156.245 259.839 158.285 256.587 159.763C253.334 161.241 249.698 161.98 245.677 161.98C240.828 161.98 236.512 160.946 232.727 158.876C228.943 156.806 225.986 153.85 223.858 150.006C221.729 146.163 220.665 141.669 220.665 136.525C220.665 131.38 221.699 126.886 223.769 123.043C225.898 119.199 228.854 116.243 232.639 114.173C236.423 112.104 240.769 111.069 245.677 111.069C250.467 111.069 254.724 112.074 258.449 114.084C262.174 116.095 265.072 118.963 267.141 122.688C269.27 126.413 270.335 130.759 270.335 135.726ZM254.813 131.735C254.813 129.133 253.926 127.064 252.152 125.526C250.378 123.989 248.161 123.22 245.5 123.22C242.957 123.22 240.799 123.959 239.025 125.438C237.31 126.916 236.246 129.015 235.832 131.735H254.813ZM305.92 148.41V161.271H298.204C292.705 161.271 288.418 159.94 285.343 157.279C282.268 154.559 280.731 150.154 280.731 144.064V124.373H274.699V111.778H280.731V99.7156H295.898V111.778H305.832V124.373H295.898V144.241C295.898 145.719 296.253 146.784 296.962 147.434C297.672 148.085 298.854 148.41 300.51 148.41H305.92ZM341.953 148.41V161.271H334.237C328.737 161.271 324.45 159.94 321.376 157.279C318.301 154.559 316.763 150.154 316.763 144.064V124.373H310.732V111.778H316.763V99.7156H331.931V111.778H341.864V124.373H331.931V144.241C331.931 145.719 332.285 146.784 332.995 147.434C333.704 148.085 334.887 148.41 336.543 148.41H341.953ZM358.029 106.634C355.368 106.634 353.181 105.865 351.466 104.328C349.81 102.731 348.982 100.78 348.982 98.4739C348.982 96.1087 349.81 94.1573 351.466 92.6199C353.181 91.0234 355.368 90.2251 358.029 90.2251C360.631 90.2251 362.76 91.0234 364.415 92.6199C366.13 94.1573 366.988 96.1087 366.988 98.4739C366.988 100.78 366.13 102.731 364.415 104.328C362.76 105.865 360.631 106.634 358.029 106.634ZM365.569 111.778V161.271H350.402V111.778H365.569ZM406.717 111.246C412.511 111.246 417.124 113.138 420.553 116.923C424.042 120.648 425.786 125.792 425.786 132.356V161.271H410.708V134.396C410.708 131.085 409.851 128.512 408.136 126.679C406.421 124.846 404.115 123.93 401.217 123.93C398.32 123.93 396.014 124.846 394.299 126.679C392.584 128.512 391.727 131.085 391.727 134.396V161.271H376.56V111.778H391.727V118.342C393.264 116.154 395.334 114.439 397.936 113.197C400.537 111.897 403.464 111.246 406.717 111.246ZM455.129 111.069C458.618 111.069 461.663 111.778 464.265 113.197C466.926 114.617 468.966 116.479 470.385 118.785V111.778H485.552V161.182C485.552 165.735 484.636 169.845 482.803 173.511C481.029 177.236 478.279 180.193 474.554 182.38C470.888 184.568 466.305 185.662 460.806 185.662C453.474 185.662 447.531 183.918 442.978 180.429C438.425 177 435.823 172.328 435.173 166.415H450.162C450.636 168.307 451.759 169.786 453.533 170.85C455.307 171.973 457.495 172.535 460.096 172.535C463.23 172.535 465.714 171.619 467.547 169.786C469.439 168.012 470.385 165.144 470.385 161.182V154.175C468.907 156.481 466.867 158.373 464.265 159.852C461.663 161.271 458.618 161.98 455.129 161.98C451.049 161.98 447.354 160.946 444.042 158.876C440.731 156.747 438.1 153.761 436.148 149.918C434.256 146.015 433.31 141.521 433.31 136.436C433.31 131.351 434.256 126.886 436.148 123.043C438.1 119.199 440.731 116.243 444.042 114.173C447.354 112.104 451.049 111.069 455.129 111.069ZM470.385 136.525C470.385 132.74 469.321 129.754 467.192 127.566C465.123 125.378 462.58 124.284 459.564 124.284C456.549 124.284 453.976 125.378 451.848 127.566C449.778 129.695 448.743 132.651 448.743 136.436C448.743 140.22 449.778 143.236 451.848 145.483C453.976 147.671 456.549 148.765 459.564 148.765C462.58 148.765 465.123 147.671 467.192 145.483C469.321 143.295 470.385 140.309 470.385 136.525ZM562.951 161.271L557.185 155.683C551.45 160.059 544.591 162.246 536.608 162.246C531.818 162.246 527.65 161.478 524.102 159.94C520.554 158.344 517.804 156.126 515.853 153.288C513.961 150.391 513.015 147.02 513.015 143.177C513.015 139.274 514.05 135.756 516.119 132.622C518.248 129.429 521.411 126.827 525.61 124.817C524.072 122.924 522.978 121.121 522.328 119.406C521.677 117.632 521.352 115.711 521.352 113.641C521.352 110.684 522.121 107.994 523.658 105.57C525.196 103.145 527.413 101.253 530.311 99.893C533.267 98.4739 536.756 97.7643 540.777 97.7643C544.857 97.7643 548.316 98.5035 551.154 99.9817C553.992 101.46 556.121 103.441 557.54 105.924C558.959 108.408 559.61 111.128 559.492 114.084H545.211C545.271 112.488 544.857 111.276 543.97 110.448C543.142 109.561 542.018 109.117 540.599 109.117C539.18 109.117 537.998 109.531 537.051 110.359C536.105 111.187 535.632 112.251 535.632 113.552C535.632 114.794 536.017 116.095 536.785 117.455C537.613 118.815 538.884 120.382 540.599 122.156L555.766 136.968C555.885 136.672 556.032 136.318 556.21 135.904C556.446 135.49 556.683 135.017 556.919 134.485L560.201 128.897H575.368L571.111 136.613C569.514 140.102 567.681 143.413 565.612 146.547L580.601 161.271H562.951ZM537.318 150.006C541.279 150.006 544.798 148.883 547.872 146.636L534.036 133.243C529.778 135.431 527.65 138.387 527.65 142.112C527.65 144.359 528.507 146.252 530.222 147.789C531.996 149.267 534.361 150.006 537.318 150.006ZM44.8316 217.697C43.7081 215.627 42.082 214.06 39.9533 212.996C37.8837 211.872 35.4298 211.31 32.5915 211.31C27.6836 211.31 23.7514 212.937 20.7949 216.189C17.8384 219.382 16.3601 223.669 16.3601 229.05C16.3601 234.785 17.8975 239.279 20.9723 242.532C24.1062 245.725 28.3932 247.321 33.8332 247.321C37.5585 247.321 40.6924 246.375 43.235 244.483C45.8368 242.591 47.729 239.871 48.9116 236.323H29.6645V225.147H62.6595V239.25C61.536 243.034 59.6142 246.552 56.8942 249.805C54.2333 253.057 50.8333 255.688 46.6942 257.699C42.555 259.709 37.8837 260.714 32.6802 260.714C26.5306 260.714 21.0314 259.384 16.1827 256.723C11.3931 254.003 7.63831 250.248 4.9183 245.458C2.25741 240.669 0.926972 235.199 0.926972 229.05C0.926972 222.9 2.25741 217.431 4.9183 212.641C7.63831 207.792 11.3931 204.037 16.1827 201.377C20.9723 198.657 26.4419 197.296 32.5915 197.296C40.042 197.296 46.3098 199.1 51.3951 202.707C56.5394 206.314 59.9395 211.31 61.5951 217.697H44.8316ZM68.045 235.436C68.045 230.351 68.9911 225.886 70.8833 222.043C72.8346 218.199 75.4659 215.243 78.7772 213.173C82.0886 211.104 85.7842 210.069 89.8642 210.069C93.353 210.069 96.3982 210.778 98.9999 212.197C101.661 213.617 103.701 215.479 105.12 217.785V210.778H120.287V260.271H105.12V253.264C103.642 255.57 101.572 257.432 98.9113 258.852C96.3095 260.271 93.2643 260.98 89.7756 260.98C85.7547 260.98 82.0886 259.946 78.7772 257.876C75.4659 255.747 72.8346 252.761 70.8833 248.918C68.9911 245.015 68.045 240.521 68.045 235.436ZM105.12 235.525C105.12 231.74 104.056 228.754 101.927 226.566C99.8573 224.378 97.3147 223.284 94.2991 223.284C91.2834 223.284 88.7112 224.378 86.5825 226.566C84.5129 228.695 83.4781 231.651 83.4781 235.436C83.4781 239.22 84.5129 242.236 86.5825 244.483C88.7112 246.671 91.2834 247.765 94.2991 247.765C97.3147 247.765 99.8573 246.671 101.927 244.483C104.056 242.295 105.12 239.309 105.12 235.525ZM194.411 210.246C200.561 210.246 205.439 212.109 209.046 215.834C212.712 219.559 214.545 224.733 214.545 231.356V260.271H199.467V233.396C199.467 230.203 198.61 227.749 196.895 226.034C195.239 224.26 192.933 223.373 189.977 223.373C187.02 223.373 184.684 224.26 182.97 226.034C181.314 227.749 180.486 230.203 180.486 233.396V260.271H165.408V233.396C165.408 230.203 164.55 227.749 162.836 226.034C161.18 224.26 158.874 223.373 155.917 223.373C152.961 223.373 150.625 224.26 148.91 226.034C147.255 227.749 146.427 230.203 146.427 233.396V260.271H131.26V210.778H146.427V216.987C147.964 214.917 149.975 213.291 152.458 212.109C154.942 210.867 157.75 210.246 160.884 210.246C164.609 210.246 167.921 211.044 170.818 212.641C173.775 214.237 176.081 216.514 177.736 219.471C179.451 216.751 181.787 214.533 184.743 212.818C187.7 211.104 190.923 210.246 194.411 210.246ZM240.32 217.785C241.739 215.479 243.779 213.617 246.44 212.197C249.101 210.778 252.146 210.069 255.576 210.069C259.656 210.069 263.351 211.104 266.663 213.173C269.974 215.243 272.576 218.199 274.468 222.043C276.419 225.886 277.395 230.351 277.395 235.436C277.395 240.521 276.419 245.015 274.468 248.918C272.576 252.761 269.974 255.747 266.663 257.876C263.351 259.946 259.656 260.98 255.576 260.98C252.087 260.98 249.042 260.3 246.44 258.94C243.838 257.521 241.798 255.659 240.32 253.352V260.271H225.153V194.636H240.32V217.785ZM261.962 235.436C261.962 231.651 260.897 228.695 258.769 226.566C256.699 224.378 254.127 223.284 251.052 223.284C248.036 223.284 245.464 224.378 243.336 226.566C241.266 228.754 240.231 231.74 240.231 235.525C240.231 239.309 241.266 242.295 243.336 244.483C245.464 246.671 248.036 247.765 251.052 247.765C254.068 247.765 256.64 246.671 258.769 244.483C260.897 242.236 261.962 239.22 261.962 235.436ZM300.519 194.636V260.271H285.352V194.636H300.519ZM319.138 205.634C316.477 205.634 314.289 204.865 312.575 203.328C310.919 201.731 310.091 199.78 310.091 197.474C310.091 195.109 310.919 193.157 312.575 191.62C314.289 190.023 316.477 189.225 319.138 189.225C321.74 189.225 323.869 190.023 325.524 191.62C327.239 193.157 328.097 195.109 328.097 197.474C328.097 199.78 327.239 201.731 325.524 203.328C323.869 204.865 321.74 205.634 319.138 205.634ZM326.677 210.778V260.271H311.51V210.778H326.677ZM367.825 210.246C373.62 210.246 378.232 212.138 381.662 215.923C385.151 219.648 386.895 224.792 386.895 231.356V260.271H371.817V233.396C371.817 230.085 370.959 227.512 369.245 225.679C367.53 223.846 365.224 222.93 362.326 222.93C359.429 222.93 357.123 223.846 355.408 225.679C353.693 227.512 352.836 230.085 352.836 233.396V260.271H337.669V210.778H352.836V217.342C354.373 215.154 356.443 213.439 359.045 212.197C361.646 210.897 364.573 210.246 367.825 210.246ZM416.238 210.069C419.727 210.069 422.772 210.778 425.374 212.197C428.035 213.617 430.075 215.479 431.494 217.785V210.778H446.661V260.182C446.661 264.735 445.745 268.845 443.911 272.511C442.138 276.236 439.388 279.193 435.663 281.38C431.997 283.568 427.414 284.662 421.915 284.662C414.583 284.662 408.64 282.918 404.087 279.429C399.534 276 396.932 271.328 396.282 265.415H411.271C411.744 267.307 412.868 268.786 414.642 269.85C416.416 270.973 418.604 271.535 421.205 271.535C424.339 271.535 426.823 270.619 428.656 268.786C430.548 267.012 431.494 264.144 431.494 260.182V253.175C430.016 255.481 427.976 257.373 425.374 258.852C422.772 260.271 419.727 260.98 416.238 260.98C412.158 260.98 408.463 259.946 405.151 257.876C401.84 255.747 399.209 252.761 397.257 248.918C395.365 245.015 394.419 240.521 394.419 235.436C394.419 230.351 395.365 225.886 397.257 222.043C399.209 218.199 401.84 215.243 405.151 213.173C408.463 211.104 412.158 210.069 416.238 210.069ZM431.494 235.525C431.494 231.74 430.43 228.754 428.301 226.566C426.231 224.378 423.689 223.284 420.673 223.284C417.657 223.284 415.085 224.378 412.957 226.566C410.887 228.695 409.852 231.651 409.852 235.436C409.852 239.22 410.887 242.236 412.957 244.483C415.085 246.671 417.657 247.765 420.673 247.765C423.689 247.765 426.231 246.671 428.301 244.483C430.43 242.295 431.494 239.309 431.494 235.525Z" fill="white"/>
</svg>
