<svg width="742" height="74" viewBox="0 0 742 74" fill="none" xmlns="http://www.w3.org/2000/svg">
<path d="M0.95592 40.9087C0.95592 34.6982 2.29952 29.1746 4.98672 24.3376C7.67392 19.4409 11.4061 15.649 16.1834 12.9618C21.0203 10.2149 26.4843 8.84141 32.5753 8.84141C40.0398 8.84141 46.4293 10.812 51.744 14.7532C57.0587 18.6945 60.6118 24.0689 62.4032 30.8765H45.5634C44.3094 28.249 42.5179 26.2485 40.189 24.875C37.9198 23.5016 35.3222 22.8149 32.3962 22.8149C27.6786 22.8149 23.8568 24.457 20.9308 27.7414C18.0047 31.0257 16.5417 35.4148 16.5417 40.9087C16.5417 46.4025 18.0047 50.7916 20.9308 54.0759C23.8568 57.3603 27.6786 59.0025 32.3962 59.0025C35.3222 59.0025 37.9198 58.3157 40.189 56.9423C42.5179 55.5688 44.3094 53.5684 45.5634 50.9409H62.4032C60.6118 57.7485 57.0587 63.1229 51.744 67.0641C46.4293 70.9456 40.0398 72.8863 32.5753 72.8863C26.4843 72.8863 21.0203 71.5427 16.1834 68.8555C11.4061 66.1086 7.67392 62.3167 4.98672 57.4797C2.29952 52.6428 0.95592 47.1191 0.95592 40.9087ZM88.2647 73.1551C83.368 73.1551 78.9491 72.11 75.0079 70.02C71.1264 67.93 68.051 64.9442 65.7818 61.0627C63.5723 57.1812 62.4676 52.6428 62.4676 47.4475C62.4676 42.312 63.6022 37.8035 65.8714 33.9219C68.1406 29.9807 71.2458 26.9651 75.187 24.875C79.1282 22.785 83.5472 21.74 88.4439 21.74C93.3405 21.74 97.7595 22.785 101.701 24.875C105.642 26.9651 108.747 29.9807 111.016 33.9219C113.286 37.8035 114.42 42.312 114.42 47.4475C114.42 52.5831 113.256 57.1214 110.927 61.0627C108.658 64.9442 105.523 67.93 101.522 70.02C97.5803 72.11 93.1614 73.1551 88.2647 73.1551ZM88.2647 59.8982C91.1908 59.8982 93.669 58.8233 95.6993 56.6736C97.7894 54.5238 98.8344 51.4485 98.8344 47.4475C98.8344 43.4466 97.8192 40.3712 95.7889 38.2215C93.8183 36.0717 91.3699 34.9968 88.4439 34.9968C85.4581 34.9968 82.9799 36.0717 81.0093 38.2215C79.0387 40.3115 78.0534 43.3869 78.0534 47.4475C78.0534 51.4485 79.0088 54.5238 80.9197 56.6736C82.8903 58.8233 85.3387 59.8982 88.2647 59.8982ZM138.759 58.1067L149.597 22.4566H165.9L148.164 72.4385H129.264L111.529 22.4566H127.921L138.759 58.1067ZM213.192 46.6414C213.192 48.0745 213.103 49.5674 212.924 51.12H178.259C178.497 54.2252 179.483 56.6139 181.215 58.2859C183.006 59.8982 185.186 60.7044 187.753 60.7044C191.575 60.7044 194.233 59.0921 195.725 55.8674H212.028C211.192 59.1518 209.669 62.1077 207.46 64.7352C205.31 67.3627 202.593 69.4228 199.308 70.9157C196.024 72.4086 192.351 73.1551 188.291 73.1551C183.394 73.1551 179.035 72.11 175.213 70.02C171.391 67.93 168.406 64.9442 166.256 61.0627C164.106 57.1812 163.031 52.6428 163.031 47.4475C163.031 42.2523 164.076 37.7139 166.166 33.8324C168.316 29.9509 171.302 26.9651 175.124 24.875C178.945 22.785 183.334 21.74 188.291 21.74C193.128 21.74 197.427 22.7551 201.189 24.7855C204.951 26.8158 207.878 29.712 209.968 33.4741C212.117 37.2362 213.192 41.6253 213.192 46.6414ZM197.517 42.6106C197.517 39.9831 196.621 37.893 194.83 36.3404C193.038 34.7878 190.799 34.0115 188.112 34.0115C185.544 34.0115 183.364 34.758 181.573 36.2509C179.841 37.7437 178.766 39.8636 178.348 42.6106H197.517ZM230.32 30.7869C232.111 28.04 234.35 25.8902 237.038 24.3376C239.725 22.7253 242.711 21.9191 245.995 21.9191V38.1319H241.785C237.963 38.1319 235.097 38.9679 233.186 40.6399C231.275 42.2523 230.32 45.1186 230.32 49.239V72.4385H215.003V22.4566H230.32V30.7869Z" fill="#E750C0"/>
<path d="M283.316 9.558C289.944 9.558 295.736 10.8717 300.693 13.4992C305.649 16.1267 309.471 19.8291 312.158 24.6063C314.905 29.3238 316.279 34.7878 316.279 40.9982C316.279 47.1489 314.905 52.6129 312.158 57.3902C309.471 62.1674 305.619 65.8698 300.603 68.4972C295.647 71.1247 289.884 72.4385 283.316 72.4385H259.758V9.558H283.316ZM282.33 59.1816C288.123 59.1816 292.631 57.5992 295.856 54.4342C299.08 51.2693 300.693 46.7906 300.693 40.9982C300.693 35.2058 299.08 30.6973 295.856 27.4727C292.631 24.248 288.123 22.6357 282.33 22.6357H275.075V59.1816H282.33ZM333.885 30.7869C335.677 28.04 337.916 25.8902 340.603 24.3376C343.29 22.7253 346.276 21.9191 349.561 21.9191V38.1319H345.351C341.529 38.1319 338.663 38.9679 336.752 40.6399C334.841 42.2523 333.885 45.1186 333.885 49.239V72.4385H318.568V22.4566H333.885V30.7869ZM358.315 17.2613C355.628 17.2613 353.418 16.485 351.687 14.9324C350.015 13.3201 349.179 11.3495 349.179 9.02056C349.179 6.63194 350.015 4.66132 351.687 3.10872C353.418 1.4964 355.628 0.690237 358.315 0.690237C360.943 0.690237 363.092 1.4964 364.764 3.10872C366.496 4.66132 367.362 6.63194 367.362 9.02056C367.362 11.3495 366.496 13.3201 364.764 14.9324C363.092 16.485 360.943 17.2613 358.315 17.2613ZM365.929 22.4566V72.4385H350.612V22.4566H365.929ZM393.242 58.1067L404.08 22.4566H420.382L402.647 72.4385H383.747L366.011 22.4566H382.403L393.242 58.1067ZM467.675 46.6414C467.675 48.0745 467.585 49.5674 467.406 51.12H432.741C432.98 54.2252 433.966 56.6139 435.697 58.2859C437.489 59.8982 439.668 60.7044 442.236 60.7044C446.058 60.7044 448.715 59.0921 450.208 55.8674H466.51C465.674 59.1518 464.152 62.1077 461.942 64.7352C459.792 67.3627 457.075 69.4228 453.791 70.9157C450.507 72.4086 446.834 73.1551 442.774 73.1551C437.877 73.1551 433.518 72.11 429.696 70.02C425.874 67.93 422.888 64.9442 420.739 61.0627C418.589 57.1812 417.514 52.6428 417.514 47.4475C417.514 42.2523 418.559 37.7139 420.649 33.8324C422.799 29.9509 425.784 26.9651 429.606 24.875C433.428 22.785 437.817 21.74 442.774 21.74C447.611 21.74 451.91 22.7551 455.672 24.7855C459.434 26.8158 462.36 29.712 464.45 33.4741C466.6 37.2362 467.675 41.6253 467.675 46.6414ZM452 42.6106C452 39.9831 451.104 37.893 449.312 36.3404C447.521 34.7878 445.282 34.0115 442.594 34.0115C440.027 34.0115 437.847 34.758 436.056 36.2509C434.324 37.7437 433.249 39.8636 432.831 42.6106H452Z" fill="white"/>
<path d="M511.935 73.0655C506.024 73.0655 500.589 71.692 495.633 68.9451C490.736 66.1982 486.825 62.3764 483.899 57.4797C481.033 52.5233 479.599 46.9698 479.599 40.8191C479.599 34.6684 481.033 29.1447 483.899 24.248C486.825 19.3514 490.736 15.5296 495.633 12.7826C500.589 10.0357 506.024 8.66227 511.935 8.66227C517.847 8.66227 523.251 10.0357 528.148 12.7826C533.105 15.5296 536.986 19.3514 539.793 24.248C542.659 29.1447 544.092 34.6684 544.092 40.8191C544.092 46.9698 542.659 52.5233 539.793 57.4797C536.926 62.3764 533.045 66.1982 528.148 68.9451C523.251 71.692 517.847 73.0655 511.935 73.0655ZM511.935 59.0921C516.951 59.0921 520.952 57.42 523.938 54.0759C526.984 50.7319 528.506 46.3129 528.506 40.8191C528.506 35.2655 526.984 30.8466 523.938 27.5622C520.952 24.2182 516.951 22.5461 511.935 22.5461C506.86 22.5461 502.799 24.1883 499.753 27.4727C496.768 30.757 495.275 35.2058 495.275 40.8191C495.275 46.3726 496.768 50.8214 499.753 54.1655C502.799 57.4499 506.86 59.0921 511.935 59.0921ZM576.798 21.9191C582.65 21.9191 587.308 23.83 590.772 27.6518C594.295 31.4139 596.057 36.6091 596.057 43.2376V72.4385H580.829V45.2978C580.829 41.9537 579.963 39.3561 578.232 37.5049C576.5 35.6537 574.171 34.7281 571.245 34.7281C568.319 34.7281 565.99 35.6537 564.258 37.5049C562.526 39.3561 561.66 41.9537 561.66 45.2978V72.4385H546.343V22.4566H561.66V29.085C563.213 26.8755 565.303 25.1438 567.931 23.8897C570.558 22.576 573.514 21.9191 576.798 21.9191ZM615.747 6.15421V72.4385H600.43V6.15421H615.747ZM628.281 17.2613C625.593 17.2613 623.384 16.485 621.652 14.9324C619.98 13.3201 619.144 11.3495 619.144 9.02056C619.144 6.63194 619.98 4.66132 621.652 3.10872C623.384 1.4964 625.593 0.690237 628.281 0.690237C630.908 0.690237 633.058 1.4964 634.73 3.10872C636.462 4.66132 637.328 6.63194 637.328 9.02056C637.328 11.3495 636.462 13.3201 634.73 14.9324C633.058 16.485 630.908 17.2613 628.281 17.2613ZM635.894 22.4566V72.4385H620.577V22.4566H635.894ZM671.179 21.9191C677.031 21.9191 681.689 23.83 685.153 27.6518C688.676 31.4139 690.438 36.6091 690.438 43.2376V72.4385H675.21V45.2978C675.21 41.9537 674.344 39.3561 672.612 37.5049C670.881 35.6537 668.552 34.7281 665.626 34.7281C662.7 34.7281 660.371 35.6537 658.639 37.5049C656.907 39.3561 656.041 41.9537 656.041 45.2978V72.4385H640.724V22.4566H656.041V29.085C657.594 26.8755 659.684 25.1438 662.311 23.8897C664.939 22.576 667.895 21.9191 671.179 21.9191ZM741.927 46.6414C741.927 48.0745 741.837 49.5674 741.658 51.12H706.993C707.232 54.2252 708.217 56.6139 709.949 58.2859C711.741 59.8982 713.92 60.7044 716.488 60.7044C720.31 60.7044 722.967 59.0921 724.46 55.8674H740.762C739.926 59.1518 738.404 62.1077 736.194 64.7352C734.044 67.3627 731.327 69.4228 728.043 70.9157C724.759 72.4086 721.086 73.1551 717.025 73.1551C712.129 73.1551 707.769 72.11 703.948 70.02C700.126 67.93 697.14 64.9442 694.99 61.0627C692.841 57.1812 691.766 52.6428 691.766 47.4475C691.766 42.2523 692.811 37.7139 694.901 33.8324C697.051 29.9509 700.036 26.9651 703.858 24.875C707.68 22.785 712.069 21.74 717.025 21.74C721.862 21.74 726.162 22.7551 729.924 24.7855C733.686 26.8158 736.612 29.712 738.702 33.4741C740.852 37.2362 741.927 41.6253 741.927 46.6414ZM726.251 42.6106C726.251 39.9831 725.356 37.893 723.564 36.3404C721.773 34.7878 719.533 34.0115 716.846 34.0115C714.278 34.0115 712.099 34.758 710.307 36.2509C708.576 37.7437 707.501 39.8636 707.083 42.6106H726.251Z" fill="#CE49B5"/>
</svg>
