<svg width="1488" height="198" viewBox="0 0 1488 198" fill="none" xmlns="http://www.w3.org/2000/svg">
<path opacity="0.22" d="M0.364583 147.869C0.364583 153.76 5.14021 158.535 11.0312 158.535C16.9223 158.535 21.6979 153.76 21.6979 147.869C21.6979 141.978 16.9223 137.202 11.0312 137.202C5.14021 137.202 0.364583 141.978 0.364583 147.869ZM452.576 75.9428L453.348 74.0979L452.576 75.9428ZM958.054 119.898L959.037 121.64L958.054 119.898ZM1473.52 119.898L1472.7 121.72L1473.52 119.898ZM1357.64 147.869L1359.63 148.085L1357.64 147.869ZM1295.26 0.0212402L1304.75 21.0763L1318.24 2.33222L1295.26 0.0212402ZM11.9724 149.633C13.0909 149.037 14.2289 148.435 15.3858 147.828L13.5281 144.286C12.363 144.897 11.2169 145.503 10.0901 146.104L11.9724 149.633ZM22.4334 144.192C24.7339 143.023 27.0982 141.84 29.5237 140.644L27.7546 137.056C25.3153 138.259 22.9369 139.45 20.6221 140.625L22.4334 144.192ZM36.5825 137.211C38.9163 136.091 41.2997 134.963 43.7307 133.827L42.0376 130.203C39.5943 131.345 37.1986 132.479 34.8524 133.605L36.5825 137.211ZM50.9637 130.491C53.309 129.423 55.6937 128.351 58.1163 127.275L56.4925 123.619C54.0586 124.7 51.6627 125.778 49.3062 126.851L50.9637 130.491ZM65.3668 124.094C67.7624 123.055 70.1915 122.015 72.6526 120.974L71.0945 117.29C68.6225 118.336 66.1826 119.38 63.7762 120.423L65.3668 124.094ZM79.919 117.938C82.3446 116.937 84.7985 115.936 87.2795 114.937L85.785 111.226C83.2934 112.23 80.8288 113.235 78.3927 114.241L79.919 117.938ZM94.5917 112.027C97.0299 111.069 99.4921 110.113 101.977 109.161L100.546 105.426C98.0499 106.382 95.5772 107.342 93.1286 108.305L94.5917 112.027ZM109.367 106.364C111.819 105.448 114.291 104.536 116.782 103.628L115.413 99.8698C112.911 100.781 110.429 101.697 107.967 102.617L109.367 106.364ZM124.235 100.95C126.701 100.076 129.184 99.2073 131.684 98.3449L130.379 94.5636C127.869 95.4298 125.375 96.3022 122.898 97.1802L124.235 100.95ZM139.19 95.7915C141.67 94.9596 144.166 94.1345 146.676 93.317L145.437 89.5137C142.916 90.3348 140.409 91.1635 137.918 91.9991L139.19 95.7915ZM154.227 90.894C156.724 90.1053 159.233 89.3247 161.754 88.5528L160.583 84.7281C158.05 85.5034 155.53 86.2876 153.022 87.0799L154.227 90.894ZM169.345 86.2667C171.857 85.5225 174.381 84.7876 176.914 84.0627L175.814 80.217C173.269 80.9453 170.733 81.6837 168.209 82.4314L169.345 86.2667ZM184.54 81.92C187.07 81.2222 189.608 80.535 192.155 79.8589L191.129 75.9928C188.569 76.6722 186.018 77.3629 183.476 78.0641L184.54 81.92ZM199.815 77.8662C202.361 77.2175 204.914 76.5805 207.474 75.956L206.526 72.07C203.953 72.6978 201.386 73.338 198.828 73.99L199.815 77.8662ZM215.168 74.1211C217.729 73.5245 220.296 72.941 222.867 72.371L222.002 68.4658C219.416 69.0389 216.835 69.6256 214.26 70.2254L215.168 74.1211ZM230.594 70.7032C233.17 70.1622 235.75 69.6355 238.333 69.1237L237.555 65.2C234.957 65.7148 232.363 66.2445 229.772 66.7886L230.594 70.7032ZM246.091 67.6337C248.681 67.1522 251.273 66.6863 253.867 66.2367L253.183 62.2955C250.573 62.7479 247.965 63.2167 245.36 63.701L246.091 67.6337ZM261.654 64.9368C264.257 64.5193 266.86 64.1187 269.463 63.7358L268.881 59.7784C266.26 60.1639 263.64 60.5671 261.021 60.9873L261.654 64.9368ZM277.277 62.6401C279.892 62.2917 282.505 61.9616 285.117 61.6507L284.644 57.6787C282.013 57.9919 279.381 58.3243 276.749 58.6752L277.277 62.6401ZM292.954 60.7752C295.578 60.5016 298.2 60.2479 300.819 60.0149L300.465 56.0306C297.825 56.2655 295.183 56.5211 292.539 56.7968L292.954 60.7752ZM308.675 59.3779C311.307 59.1855 313.936 59.0148 316.559 58.8665L316.333 54.8728C313.688 55.0225 311.037 55.1946 308.384 55.3886L308.675 59.3779ZM324.428 58.4887C327.066 58.3849 329.697 58.3046 332.322 58.2485L332.237 54.2495C329.587 54.3061 326.932 54.3871 324.271 54.4918L324.428 58.4887ZM340.198 58.1535C342.836 58.1465 345.467 58.165 348.09 58.2096L348.158 54.2102C345.509 54.1651 342.851 54.1465 340.187 54.1535L340.198 58.1535ZM355.962 58.4237C358.597 58.5227 361.223 58.6491 363.838 58.8038L364.074 54.8108C361.43 54.6544 358.775 54.5265 356.112 54.4265L355.962 58.4237ZM371.693 59.3568C374.319 59.5717 376.933 59.8162 379.534 60.0913L379.955 56.1135C377.321 55.835 374.676 55.5875 372.019 55.3701L371.693 59.3568ZM387.355 61.0159C389.963 61.3574 392.558 61.7311 395.138 62.1376L395.761 58.1863C393.146 57.7743 390.516 57.3957 387.874 57.0497L387.355 61.0159ZM402.901 63.4691C405.483 63.9488 408.048 64.463 410.597 65.0126L411.44 61.1025C408.853 60.5446 406.25 60.0229 403.631 59.5364L402.901 63.4691ZM418.272 66.7881C420.817 67.4181 423.345 68.0852 425.852 68.7904L426.935 64.9397C424.386 64.223 421.818 63.5451 419.232 62.9053L418.272 66.7881ZM433.394 71.0455C435.894 71.8387 438.372 72.6717 440.829 73.5456L442.169 69.777C439.669 68.8874 437.147 68.0397 434.604 67.2329L433.394 71.0455ZM448.18 76.3104C449.394 76.7923 450.602 77.2846 451.803 77.7877L453.348 74.0979C452.123 73.5852 450.892 73.0835 449.656 72.5927L448.18 76.3104ZM451.803 77.7877C453.045 78.3072 454.284 78.8271 455.523 79.3472L457.072 75.6592C455.832 75.1386 454.591 74.6181 453.348 74.0979L451.803 77.7877ZM462.938 82.4704C465.411 83.5147 467.879 84.5595 470.343 85.6042L471.904 81.9216C469.44 80.8763 466.97 79.8307 464.494 78.7855L462.938 82.4704ZM477.754 88.7525C480.224 89.803 482.688 90.8528 485.149 91.9013L486.717 88.2215C484.256 87.1728 481.79 86.1227 479.32 85.0717L477.754 88.7525ZM492.562 95.0614C495.03 96.1136 497.494 97.1639 499.953 98.2117L501.521 94.5317C499.062 93.4842 496.599 92.4341 494.131 91.3819L492.562 95.0614ZM507.374 101.37C509.843 102.419 512.309 103.466 514.771 104.509L516.331 100.825C513.871 99.7834 511.407 98.7375 508.938 97.6884L507.374 101.37ZM522.202 107.648C524.676 108.691 527.147 109.729 529.614 110.763L531.159 107.073C528.695 106.041 526.227 105.004 523.755 103.962L522.202 107.648ZM537.059 113.868C539.54 114.898 542.018 115.923 544.493 116.941L546.015 113.242C543.544 112.226 541.071 111.203 538.593 110.174L537.059 113.868ZM551.958 119.996C554.449 121.009 556.936 122.014 559.421 123.012L560.912 119.3C558.432 118.305 555.951 117.301 553.466 116.29L551.958 119.996ZM566.914 125.999C569.415 126.988 571.914 127.969 574.411 128.94L575.861 125.212C573.371 124.244 570.879 123.266 568.385 122.279L566.914 125.999ZM581.937 131.841C584.451 132.801 586.963 133.751 589.474 134.689L590.875 130.942C588.373 130.007 585.87 129.061 583.364 128.104L581.937 131.841ZM597.042 137.486C599.57 138.409 602.098 139.321 604.624 140.22L605.965 136.451C603.45 135.556 600.933 134.648 598.414 133.728L597.042 137.486ZM612.239 142.892C614.784 143.772 617.328 144.639 619.872 145.491L621.143 141.698C618.612 140.85 616.08 139.988 613.546 139.111L612.239 142.892ZM627.539 148.017C630.101 148.846 632.664 149.661 635.226 150.459L636.416 146.64C633.868 145.846 631.32 145.036 628.771 144.211L627.539 148.017ZM642.95 152.816C645.531 153.587 648.112 154.342 650.695 155.078L651.792 151.231C649.226 150.5 646.66 149.75 644.095 148.984L642.95 152.816ZM658.478 157.243C661.078 157.947 663.679 158.633 666.282 159.3L667.274 155.425C664.69 154.763 662.107 154.082 659.524 153.382L658.478 157.243ZM674.125 161.247C676.745 161.877 679.366 162.487 681.989 163.075L682.864 159.172C680.262 158.588 677.661 157.983 675.06 157.358L674.125 161.247ZM689.892 164.78C692.53 165.327 695.171 165.851 697.814 166.353L698.559 162.423C695.939 161.926 693.321 161.406 690.704 160.863L689.892 164.78ZM705.772 167.79C708.428 168.246 711.087 168.677 713.748 169.083L714.352 165.129C711.715 164.726 709.08 164.299 706.448 163.848L705.772 167.79ZM721.754 170.228C724.426 170.584 727.101 170.915 729.78 171.218L730.23 167.244C727.578 166.943 724.929 166.616 722.283 166.263L721.754 170.228ZM737.824 172.048C740.508 172.297 743.196 172.519 745.888 172.712L746.175 168.722C743.511 168.531 740.851 168.311 738.193 168.065L737.824 172.048ZM753.958 173.205C756.651 173.341 759.347 173.448 762.048 173.525L762.162 169.526C759.491 169.45 756.823 169.345 754.16 169.21L753.958 173.205ZM770.132 173.665C772.827 173.682 775.526 173.668 778.231 173.623L778.165 169.624C775.491 169.668 772.821 169.682 770.157 169.665L770.132 173.665ZM786.312 173.397C789.004 173.291 791.701 173.154 794.403 172.984L794.153 168.992C791.481 169.16 788.815 169.296 786.154 169.401L786.312 173.397ZM802.465 172.383C805.147 172.152 807.835 171.888 810.529 171.592L810.092 167.616C807.429 167.909 804.772 168.169 802.121 168.398L802.465 172.383ZM818.552 170.614C821.22 170.257 823.894 169.867 826.573 169.444L825.95 165.493C823.301 165.911 820.658 166.296 818.022 166.649L818.552 170.614ZM834.538 168.09C837.186 167.609 839.84 167.094 842.501 166.545L841.693 162.628C839.063 163.17 836.439 163.679 833.822 164.155L834.538 168.09ZM850.386 164.825C853.011 164.221 855.641 163.583 858.279 162.912L857.292 159.036C854.685 159.699 852.083 160.329 849.489 160.927L850.386 164.825ZM866.066 160.838C868.664 160.115 871.269 159.358 873.88 158.569L872.722 154.74C870.139 155.521 867.563 156.269 864.993 156.985L866.066 160.838ZM881.55 156.158C884.113 155.322 886.683 154.454 889.259 153.552L887.938 149.776C885.388 150.669 882.846 151.528 880.31 152.355L881.55 156.158ZM896.819 150.818C899.338 149.878 901.862 148.906 904.394 147.901L902.919 144.183C900.413 145.178 897.913 146.14 895.42 147.071L896.819 150.818ZM911.86 144.853C914.329 143.817 916.804 142.75 919.286 141.652L917.667 137.994C915.208 139.082 912.757 140.139 910.312 141.165L911.86 144.853ZM926.667 138.301C929.081 137.177 931.502 136.024 933.93 134.84L932.177 131.245C929.771 132.418 927.372 133.561 924.979 134.674L926.667 138.301ZM941.232 131.199C943.592 129.996 945.958 128.764 948.33 127.503L946.453 123.971C944.1 125.221 941.754 126.443 939.415 127.635L941.232 131.199ZM955.458 123.638C956.649 122.979 957.842 122.313 959.037 121.64L957.072 118.155C955.887 118.824 954.704 119.484 953.522 120.138L955.458 123.638ZM959.037 121.64C960.202 120.983 961.37 120.333 962.541 119.69L960.616 116.184C959.432 116.834 958.25 117.491 957.072 118.155L959.037 121.64ZM969.602 115.918C971.967 114.689 974.344 113.487 976.731 112.312L974.965 108.723C972.551 109.911 970.148 111.126 967.757 112.369L969.602 115.918ZM983.959 108.855C986.378 107.729 988.809 106.631 991.249 105.559L989.64 101.897C987.174 102.98 984.718 104.09 982.272 105.228L983.959 108.855ZM998.609 102.419C1001.08 101.396 1003.55 100.401 1006.04 99.4308L1004.58 95.7045C1002.07 96.6843 999.571 97.6904 997.078 98.7232L998.609 102.419ZM1013.52 96.5982C1016.03 95.6776 1018.54 94.7825 1021.07 93.9125L1019.76 90.1309C1017.22 91.0094 1014.67 91.9134 1012.14 92.8432L1013.52 96.5982ZM1028.66 91.3771C1031.2 90.5561 1033.75 89.7597 1036.3 88.9875L1035.15 85.1586C1032.57 85.938 1030 86.742 1027.43 87.5709L1028.66 91.3771ZM1043.99 86.7413C1046.56 86.0165 1049.14 85.3154 1051.72 84.6376L1050.7 80.7688C1048.1 81.4526 1045.5 82.1601 1042.91 82.8916L1043.99 86.7413ZM1059.49 82.6712C1062.08 82.0388 1064.68 81.4293 1067.29 80.8422L1066.41 76.9402C1063.78 77.5322 1061.16 78.147 1058.54 78.785L1059.49 82.6712ZM1075.12 79.1464C1077.74 78.6029 1080.36 78.0815 1082.98 77.5817L1082.23 73.6524C1079.59 74.1563 1076.94 74.682 1074.31 75.23L1075.12 79.1464ZM1090.86 76.1461C1093.49 75.688 1096.13 75.2511 1098.77 74.8349L1098.15 70.8838C1095.49 71.3031 1092.83 71.7435 1090.17 72.2052L1090.86 76.1461ZM1106.7 73.6482C1109.34 73.2723 1111.99 72.9167 1114.64 72.581L1114.14 68.6127C1111.47 68.9509 1108.8 69.3091 1106.13 69.6879L1106.7 73.6482ZM1122.61 71.6321C1125.26 71.3352 1127.92 71.0577 1130.58 70.7991L1130.19 66.818C1127.51 67.0783 1124.84 67.3578 1122.16 67.6569L1122.61 71.6321ZM1138.57 70.0779C1141.23 69.8563 1143.9 69.6533 1146.56 69.4684L1146.28 65.478C1143.6 65.6641 1140.92 65.8685 1138.24 66.0917L1138.57 70.0779ZM1154.57 68.9658C1157.24 68.816 1159.91 68.6841 1162.58 68.5694L1162.41 64.5731C1159.72 64.6885 1157.04 64.8213 1154.35 64.972L1154.57 68.9658ZM1170.59 68.2766C1173.27 68.1957 1175.95 68.1318 1178.62 68.0846L1178.55 64.0852C1175.86 64.1327 1173.17 64.197 1170.47 64.2784L1170.59 68.2766ZM1186.63 67.992C1189.31 67.9772 1191.99 67.9788 1194.67 67.9962L1194.69 63.9963C1192 63.9788 1189.3 63.9772 1186.6 63.992L1186.63 67.992ZM1202.68 68.0954C1205.36 68.1442 1208.04 68.2085 1210.71 68.2877L1210.82 64.2895C1208.14 64.2098 1205.45 64.1451 1202.75 64.0961L1202.68 68.0954ZM1218.73 68.5715C1221.4 68.6811 1224.07 68.8053 1226.73 68.9435L1226.94 64.9489C1224.26 64.8099 1221.58 64.685 1218.9 64.5749L1218.73 68.5715ZM1234.76 69.4056C1237.44 69.5737 1240.1 69.7556 1242.75 69.9508L1243.04 65.9616C1240.38 65.7654 1237.7 65.5825 1235.02 65.4135L1234.76 69.4056ZM1250.77 70.584C1253.45 70.8089 1256.11 71.0471 1258.76 71.2977L1259.13 67.3155C1256.47 67.0635 1253.79 66.8242 1251.11 66.5981L1250.77 70.584ZM1266.75 72.0941C1269.42 72.3745 1272.09 72.6673 1274.74 72.9719L1275.19 68.998C1272.53 68.692 1269.85 68.3977 1267.16 68.1159L1266.75 72.0941ZM1282.68 73.9251C1285.36 74.2596 1288.02 74.6058 1290.67 74.963L1291.21 70.9989C1288.55 70.64 1285.87 70.2921 1283.18 69.9559L1282.68 73.9251ZM1298.58 76.0672C1301.26 76.4549 1303.92 76.8535 1306.57 77.2623L1307.18 73.3092C1304.52 72.8985 1301.84 72.4979 1299.15 72.1083L1298.58 76.0672ZM1314.46 78.5184C1317.13 78.9569 1319.78 79.4052 1322.41 79.8628L1323.1 75.9218C1320.45 75.4622 1317.79 75.0117 1315.1 74.5712L1314.46 78.5184ZM1330.28 81.2682C1332.95 81.7567 1335.59 82.254 1338.21 82.7593L1338.97 78.8318C1336.34 78.3241 1333.68 77.8245 1331.01 77.3338L1330.28 81.2682ZM1346.06 84.3118C1348.71 84.8501 1351.34 85.3962 1353.95 85.9491L1354.78 82.0364C1352.16 81.4809 1349.52 80.9323 1346.85 80.3914L1346.06 84.3118ZM1361.76 87.6461C1364.42 88.2353 1367.04 88.8309 1369.63 89.4319L1370.53 85.5353C1367.93 84.9315 1365.29 84.3332 1362.63 83.7413L1361.76 87.6461ZM1377.39 91.2706C1380.05 91.9126 1382.66 92.5594 1385.24 93.2098L1386.22 89.3312C1383.63 88.6776 1381 88.0278 1378.33 87.3827L1377.39 91.2706ZM1392.94 95.1886C1395.59 95.886 1398.21 96.5861 1400.77 97.2875L1401.83 93.429C1399.25 92.724 1396.62 92.0204 1393.95 91.3196L1392.94 95.1886ZM1408.48 99.4346C1411.1 100.181 1413.67 100.926 1416.18 101.671L1417.32 97.835C1414.79 97.0869 1412.21 96.337 1409.57 95.5871L1408.48 99.4346ZM1423.91 104.004C1426.51 104.807 1429.04 105.605 1431.51 106.397L1432.73 102.589C1430.25 101.792 1427.7 100.989 1425.09 100.182L1423.91 104.004ZM1439.13 108.904C1441.77 109.792 1444.32 110.669 1446.76 111.532L1448.09 107.759C1445.63 106.89 1443.07 106.007 1440.4 105.112L1439.13 108.904ZM1454.31 114.263C1456.95 115.247 1459.45 116.204 1461.78 117.129L1463.25 113.41C1460.89 112.474 1458.37 111.507 1455.7 110.514L1454.31 114.263ZM1469.18 120.173C1470.42 120.705 1471.59 121.221 1472.7 121.72L1474.35 118.075C1473.22 117.564 1472.02 117.038 1470.76 116.498L1469.18 120.173ZM1472.7 121.72C1473.96 122.29 1475.1 122.89 1476.12 123.516L1478.21 120.102C1477.03 119.382 1475.74 118.706 1474.35 118.075L1472.7 121.72ZM1481.5 128.227C1482.96 130.188 1483.73 132.308 1483.93 134.564L1487.91 134.215C1487.65 131.228 1486.61 128.404 1484.71 125.845L1481.5 128.227ZM1482.91 141.64C1482.17 143.788 1481.05 146.03 1479.59 148.334L1482.97 150.476C1484.56 147.964 1485.83 145.441 1486.69 142.942L1482.91 141.64ZM1474.94 154.544C1473.33 156.423 1471.52 158.308 1469.55 160.179L1472.31 163.078C1474.36 161.125 1476.26 159.144 1477.98 157.152L1474.94 154.544ZM1463.66 165.349C1461.66 166.968 1459.57 168.559 1457.38 170.113L1459.69 173.375C1461.95 171.774 1464.12 170.129 1466.18 168.454L1463.66 165.349ZM1450.8 174.493C1448.59 175.878 1446.31 177.217 1443.99 178.501L1445.92 182.003C1448.31 180.684 1450.65 179.308 1452.92 177.884L1450.8 174.493ZM1436.96 182.135C1434.59 183.284 1432.18 184.368 1429.75 185.377L1431.29 189.07C1433.79 188.031 1436.26 186.917 1438.7 185.736L1436.96 182.135ZM1422.38 188.196C1419.86 189.07 1417.35 189.854 1414.85 190.539L1415.91 194.396C1418.5 193.687 1421.1 192.876 1423.69 191.975L1422.38 188.196ZM1407.21 192.324C1404.58 192.826 1402 193.2 1399.48 193.436L1399.85 197.419C1402.51 197.17 1405.22 196.777 1407.96 196.253L1407.21 192.324ZM1391.74 193.708C1389.07 193.632 1386.51 193.367 1384.08 192.898L1383.32 196.826C1385.99 197.34 1388.77 197.625 1391.63 197.707L1391.74 193.708ZM1376.83 190.717C1374.5 189.718 1372.36 188.459 1370.43 186.922L1367.94 190.048C1370.17 191.825 1372.62 193.263 1375.25 194.393L1376.83 190.717ZM1365.38 181.541C1364.03 179.613 1362.86 177.417 1361.91 174.926L1358.17 176.35C1359.23 179.132 1360.55 181.626 1362.11 183.841L1365.38 181.541ZM1359.92 167.572C1359.51 165.213 1359.24 162.661 1359.14 159.907L1355.14 160.052C1355.25 162.974 1355.53 165.71 1355.98 168.267L1359.92 167.572ZM1359.27 152.15C1359.36 150.833 1359.48 149.478 1359.63 148.085L1355.65 147.652C1355.5 149.099 1355.37 150.511 1355.28 151.888L1359.27 152.15ZM1359.63 148.085C1359.78 146.719 1359.92 145.369 1360.06 144.035L1356.08 143.624C1355.94 144.95 1355.8 146.293 1355.65 147.652L1359.63 148.085ZM1360.83 136.103C1361.08 133.386 1361.3 130.741 1361.49 128.165L1357.5 127.863C1357.31 130.419 1357.09 133.044 1356.85 135.742L1360.83 136.103ZM1362.03 120.18C1362.19 117.425 1362.31 114.756 1362.41 112.167L1358.41 112.02C1358.32 114.579 1358.19 117.22 1358.03 119.948L1362.03 120.18ZM1362.6 104.155C1362.64 101.379 1362.62 98.7039 1362.57 96.1239L1358.57 96.2052C1358.62 98.7405 1358.63 101.373 1358.6 104.11L1362.6 104.155ZM1362.25 88.0522C1362.09 85.2497 1361.86 82.5695 1361.58 80.0025L1357.61 80.4374C1357.88 82.9342 1358.1 85.5487 1358.26 88.2904L1362.25 88.0522ZM1360.47 72.0261C1359.98 69.2243 1359.42 66.5704 1358.77 64.0487L1354.9 65.0405C1355.52 67.4524 1356.06 70.0023 1356.53 72.7072L1360.47 72.0261ZM1356.38 56.2604C1355.41 53.5992 1354.33 51.1008 1353.15 48.7388L1349.57 50.5353C1350.69 52.7538 1351.7 55.1088 1352.62 57.6282L1356.38 56.2604ZM1349 41.6445C1347.45 39.3497 1345.78 37.1912 1344 35.1331L1340.98 37.7547C1342.66 39.6979 1344.23 41.7277 1345.68 43.8794L1349 41.6445ZM1338.32 29.254C1336.38 27.4287 1334.34 25.6644 1332.2 23.9293L1329.68 27.0374C1331.76 28.7218 1333.73 30.4214 1335.58 32.1682L1338.32 29.254ZM1325.81 19.019C1323.72 17.4781 1321.54 15.9332 1319.3 14.3626L1317 17.6414C1319.24 19.2009 1321.38 20.7258 1323.44 22.2411L1325.81 19.019ZM1312.73 9.82017C1310.6 8.35731 1308.41 6.85668 1306.17 5.29845L1303.89 8.58436C1306.14 10.1488 1308.33 11.655 1310.46 13.1163L1312.73 9.82017Z" fill="white"/>
</svg>
