<svg width="294" height="29" viewBox="0 0 294 29" fill="none" xmlns="http://www.w3.org/2000/svg">
<path d="M0.170437 15.9377C0.170437 13.4786 0.702454 11.2914 1.76649 9.37616C2.83052 7.43725 4.30835 5.93578 6.19996 4.87175C8.11522 3.78407 10.2788 3.24023 12.6906 3.24023C15.6462 3.24023 18.1763 4.02052 20.2807 5.5811C22.3851 7.14169 23.792 9.26975 24.5013 11.9653H17.8334C17.3369 10.9249 16.6275 10.1328 15.7053 9.58896C14.8068 9.04513 13.7782 8.77321 12.6196 8.77321C10.7517 8.77321 9.23837 9.42345 8.07976 10.7239C6.92114 12.0244 6.34183 13.7623 6.34183 15.9377C6.34183 18.1131 6.92114 19.851 8.07976 21.1515C9.23837 22.452 10.7517 23.1022 12.6196 23.1022C13.7782 23.1022 14.8068 22.8303 15.7053 22.2864C16.6275 21.7426 17.3369 20.9505 17.8334 19.9101H24.5013C23.792 22.6056 22.3851 24.7337 20.2807 26.2943C18.1763 27.8312 15.6462 28.5997 12.6906 28.5997C10.2788 28.5997 8.11522 28.0677 6.19996 27.0037C4.30835 25.916 2.83052 24.4145 1.76649 22.4992C0.702454 20.584 0.170437 18.3968 0.170437 15.9377ZM34.7416 28.7061C32.8027 28.7061 31.0529 28.2923 29.4923 27.4647C27.9554 26.6372 26.7377 25.4549 25.8391 23.918C24.9643 22.381 24.5268 20.584 24.5268 18.5268C24.5268 16.4934 24.9761 14.7081 25.8746 13.1712C26.7731 11.6106 28.0027 10.4165 29.5633 9.58896C31.1238 8.76138 32.8736 8.34759 34.8125 8.34759C36.7514 8.34759 38.5011 8.76138 40.0617 9.58896C41.6223 10.4165 42.8519 11.6106 43.7504 13.1712C44.6489 14.7081 45.0982 16.4934 45.0982 18.5268C45.0982 20.5603 44.6371 22.3574 43.7149 23.918C42.8164 25.4549 41.575 26.6372 39.9908 27.4647C38.4302 28.2923 36.6805 28.7061 34.7416 28.7061ZM34.7416 23.4569C35.9002 23.4569 36.8815 23.0313 37.6854 22.18C38.513 21.3288 38.9268 20.1111 38.9268 18.5268C38.9268 16.9426 38.5248 15.7249 37.7209 14.8737C36.9406 14.0224 35.9711 13.5968 34.8125 13.5968C33.6302 13.5968 32.649 14.0224 31.8687 14.8737C31.0884 15.7012 30.6982 16.919 30.6982 18.5268C30.6982 20.1111 31.0766 21.3288 31.8332 22.18C32.6135 23.0313 33.5829 23.4569 34.7416 23.4569ZM54.7354 22.7475L59.027 8.63133H65.4822L58.4595 28.4224H50.9758L43.9532 8.63133H50.4438L54.7354 22.7475ZM84.2083 18.2076C84.2083 18.7751 84.1729 19.3663 84.1019 19.981H70.3759C70.4705 21.2106 70.8606 22.1564 71.5463 22.8185C72.2557 23.4569 73.1187 23.7761 74.1355 23.7761C75.6488 23.7761 76.701 23.1377 77.2921 21.8608H83.7472C83.4162 23.1613 82.8133 24.3317 81.9384 25.3721C81.0872 26.4125 80.0113 27.2283 78.7108 27.8194C77.4103 28.4105 75.9562 28.7061 74.3483 28.7061C72.4094 28.7061 70.6833 28.2923 69.17 27.4647C67.6567 26.6372 66.4744 25.4549 65.6232 23.918C64.772 22.381 64.3464 20.584 64.3464 18.5268C64.3464 16.4697 64.7602 14.6727 65.5877 13.1357C66.439 11.5988 67.6212 10.4165 69.1345 9.58896C70.6478 8.76138 72.3857 8.34759 74.3483 8.34759C76.2635 8.34759 77.966 8.74956 79.4556 9.5535C80.9453 10.3574 82.1039 11.5042 82.9315 12.9939C83.7827 14.4835 84.2083 16.2214 84.2083 18.2076ZM78.0015 16.6116C78.0015 15.5712 77.6468 14.7436 76.9374 14.1288C76.2281 13.5141 75.3414 13.2067 74.2773 13.2067C73.2606 13.2067 72.3976 13.5022 71.6882 14.0934C71.0025 14.6845 70.5769 15.5239 70.4114 16.6116H78.0015ZM90.9902 11.9298C91.6995 10.8422 92.5862 9.99093 93.6502 9.37616C94.7143 8.73774 95.8965 8.41853 97.197 8.41853V14.8382H95.53C94.0167 14.8382 92.8818 15.1692 92.1251 15.8313C91.3685 16.4697 90.9902 17.6047 90.9902 19.2362V28.4224H84.9252V8.63133H90.9902V11.9298Z" fill="#E750C0"/>
<path d="M111.975 3.52397C114.599 3.52397 116.893 4.04417 118.855 5.08455C120.818 6.12494 122.331 7.59095 123.395 9.48256C124.483 11.3505 125.027 13.5141 125.027 15.9732C125.027 18.4086 124.483 20.5722 123.395 22.4638C122.331 24.3554 120.806 25.8214 118.82 26.8618C116.857 27.9022 114.576 28.4224 111.975 28.4224H102.647V3.52397H111.975ZM111.584 23.1731C113.878 23.1731 115.663 22.5465 116.94 21.2933C118.217 20.0401 118.855 18.2668 118.855 15.9732C118.855 13.6796 118.217 11.8944 116.94 10.6175C115.663 9.34069 113.878 8.70227 111.584 8.70227H108.712V23.1731H111.584ZM131.998 11.9298C132.708 10.8422 133.594 9.99093 134.658 9.37616C135.723 8.73774 136.905 8.41853 138.205 8.41853V14.8382H136.538C135.025 14.8382 133.89 15.1692 133.133 15.8313C132.377 16.4697 131.998 17.6047 131.998 19.2362V28.4224H125.933V8.63133H131.998V11.9298ZM141.672 6.5742C140.608 6.5742 139.733 6.26681 139.047 5.65204C138.385 5.01362 138.054 4.23333 138.054 3.31117C138.054 2.36536 138.385 1.58507 139.047 0.97029C139.733 0.33187 140.608 0.0126594 141.672 0.0126594C142.712 0.0126594 143.563 0.33187 144.225 0.97029C144.911 1.58507 145.254 2.36536 145.254 3.31117C145.254 4.23333 144.911 5.01362 144.225 5.65204C143.563 6.26681 142.712 6.5742 141.672 6.5742ZM144.686 8.63133V28.4224H138.621V8.63133H144.686ZM155.501 22.7475L159.793 8.63133H166.248L159.225 28.4224H151.742L144.719 8.63133H151.21L155.501 22.7475ZM184.974 18.2076C184.974 18.7751 184.939 19.3663 184.868 19.981H171.142C171.236 21.2106 171.627 22.1564 172.312 22.8185C173.022 23.4569 173.885 23.7761 174.901 23.7761C176.415 23.7761 177.467 23.1377 178.058 21.8608H184.513C184.182 23.1613 183.579 24.3317 182.704 25.3721C181.853 26.4125 180.777 27.2283 179.477 27.8194C178.176 28.4105 176.722 28.7061 175.114 28.7061C173.175 28.7061 171.449 28.2923 169.936 27.4647C168.423 26.6372 167.24 25.4549 166.389 23.918C165.538 22.381 165.112 20.584 165.112 18.5268C165.112 16.4697 165.526 14.6727 166.354 13.1357C167.205 11.5988 168.387 10.4165 169.9 9.58896C171.414 8.76138 173.152 8.34759 175.114 8.34759C177.029 8.34759 178.732 8.74956 180.222 9.5535C181.711 10.3574 182.87 11.5042 183.697 12.9939C184.549 14.4835 184.974 16.2214 184.974 18.2076ZM178.767 16.6116C178.767 15.5712 178.413 14.7436 177.703 14.1288C176.994 13.5141 176.107 13.2067 175.043 13.2067C174.027 13.2067 173.163 13.5022 172.454 14.0934C171.768 14.6845 171.343 15.5239 171.177 16.6116H178.767Z" fill="white"/>
<path d="M202.5 28.6706C200.159 28.6706 198.007 28.1268 196.045 27.0391C194.106 25.9514 192.557 24.4381 191.398 22.4992C190.263 20.5367 189.696 18.3377 189.696 15.9022C189.696 13.4668 190.263 11.2796 191.398 9.34069C192.557 7.40178 194.106 5.88849 196.045 4.80081C198.007 3.71313 200.159 3.16929 202.5 3.16929C204.841 3.16929 206.981 3.71313 208.919 4.80081C210.882 5.88849 212.419 7.40178 213.53 9.34069C214.665 11.2796 215.233 13.4668 215.233 15.9022C215.233 18.3377 214.665 20.5367 213.53 22.4992C212.395 24.4381 210.858 25.9514 208.919 27.0391C206.981 28.1268 204.841 28.6706 202.5 28.6706ZM202.5 23.1377C204.486 23.1377 206.07 22.4756 207.252 21.1515C208.458 19.8273 209.061 18.0776 209.061 15.9022C209.061 13.7032 208.458 11.9535 207.252 10.653C206.07 9.32887 204.486 8.6668 202.5 8.6668C200.49 8.6668 198.882 9.31704 197.676 10.6175C196.494 11.918 195.903 13.6796 195.903 15.9022C195.903 18.1012 196.494 19.8628 197.676 21.1869C198.882 22.4874 200.49 23.1377 202.5 23.1377ZM228.183 8.41853C230.5 8.41853 232.345 9.17517 233.716 10.6885C235.111 12.1781 235.809 14.2352 235.809 16.8599V28.4224H229.779V17.6756C229.779 16.3515 229.436 15.3229 228.751 14.5899C228.065 13.8569 227.143 13.4904 225.984 13.4904C224.826 13.4904 223.903 13.8569 223.218 14.5899C222.532 15.3229 222.189 16.3515 222.189 17.6756V28.4224H216.124V8.63133H222.189V11.256C222.804 10.3811 223.631 9.69537 224.672 9.19882C225.712 8.67862 226.883 8.41853 228.183 8.41853ZM243.606 2.1762V28.4224H237.541V2.1762H243.606ZM248.568 6.5742C247.504 6.5742 246.629 6.26681 245.944 5.65204C245.282 5.01362 244.951 4.23333 244.951 3.31117C244.951 2.36536 245.282 1.58507 245.944 0.97029C246.629 0.33187 247.504 0.0126594 248.568 0.0126594C249.609 0.0126594 250.46 0.33187 251.122 0.97029C251.808 1.58507 252.151 2.36536 252.151 3.31117C252.151 4.23333 251.808 5.01362 251.122 5.65204C250.46 6.26681 249.609 6.5742 248.568 6.5742ZM251.583 8.63133V28.4224H245.518V8.63133H251.583ZM265.555 8.41853C267.872 8.41853 269.716 9.17517 271.088 10.6885C272.483 12.1781 273.18 14.2352 273.18 16.8599V28.4224H267.151V17.6756C267.151 16.3515 266.808 15.3229 266.122 14.5899C265.436 13.8569 264.514 13.4904 263.356 13.4904C262.197 13.4904 261.275 13.8569 260.589 14.5899C259.903 15.3229 259.561 16.3515 259.561 17.6756V28.4224H253.496V8.63133H259.561V11.256C260.175 10.3811 261.003 9.69537 262.043 9.19882C263.084 8.67862 264.254 8.41853 265.555 8.41853ZM293.568 18.2076C293.568 18.7751 293.533 19.3663 293.462 19.981H279.736C279.83 21.2106 280.22 22.1564 280.906 22.8185C281.615 23.4569 282.478 23.7761 283.495 23.7761C285.008 23.7761 286.061 23.1377 286.652 21.8608H293.107C292.776 23.1613 292.173 24.3317 291.298 25.3721C290.447 26.4125 289.371 27.2283 288.071 27.8194C286.77 28.4105 285.316 28.7061 283.708 28.7061C281.769 28.7061 280.043 28.2923 278.53 27.4647C277.016 26.6372 275.834 25.4549 274.983 23.918C274.132 22.381 273.706 20.584 273.706 18.5268C273.706 16.4697 274.12 14.6727 274.947 13.1357C275.799 11.5988 276.981 10.4165 278.494 9.58896C280.008 8.76138 281.745 8.34759 283.708 8.34759C285.623 8.34759 287.326 8.74956 288.815 9.5535C290.305 10.3574 291.464 11.5042 292.291 12.9939C293.142 14.4835 293.568 16.2214 293.568 18.2076ZM287.361 16.6116C287.361 15.5712 287.007 14.7436 286.297 14.1288C285.588 13.5141 284.701 13.2067 283.637 13.2067C282.62 13.2067 281.757 13.5022 281.048 14.0934C280.362 14.6845 279.937 15.5239 279.771 16.6116H287.361Z" fill="#CE49B5"/>
</svg>
