<svg width="283" height="43" viewBox="0 0 283 43" fill="none" xmlns="http://www.w3.org/2000/svg">
<path d="M19.8867 12.1823C19.8867 13.5929 19.554 14.9235 18.8887 16.1743C18.2233 17.4252 17.1588 18.4498 15.6951 19.2482C14.2313 20.02 12.3551 20.4059 10.0663 20.4059H5.03642V31.6633H0.485535V3.91889H10.0663C12.1954 3.91889 13.9918 4.29148 15.4556 5.03665C16.9459 5.75521 18.0504 6.73991 18.7689 7.99074C19.5141 9.24157 19.8867 10.6388 19.8867 12.1823ZM10.0663 16.6933C11.7962 16.6933 13.087 16.3074 13.9386 15.5356C14.7902 14.7372 15.216 13.6195 15.216 12.1823C15.216 9.14842 13.4995 7.63146 10.0663 7.63146H5.03642V16.6933H10.0663ZM28.7779 2.12249V31.6633H24.227V2.12249H28.7779ZM33.2359 20.5656C33.2359 18.3566 33.6883 16.4006 34.5932 14.6973C35.5246 12.9941 36.7755 11.6767 38.3457 10.7452C39.9425 9.78714 41.6989 9.3081 43.6151 9.3081C45.345 9.3081 46.8486 9.65407 48.1261 10.346C49.4301 11.0114 50.468 11.8497 51.2398 12.861V9.66738H55.8306V31.6633H51.2398V28.3899C50.468 29.4278 49.4168 30.2927 48.0861 30.9847C46.7555 31.6766 45.2385 32.0226 43.5353 32.0226C41.6457 32.0226 39.9158 31.5436 38.3457 30.5855C36.7755 29.6008 35.5246 28.2435 34.5932 26.5136C33.6883 24.7572 33.2359 22.7745 33.2359 20.5656ZM51.2398 20.6454C51.2398 19.1284 50.9205 17.8111 50.2817 16.6933C49.6696 15.5755 48.8579 14.7239 47.8466 14.1384C46.8353 13.5529 45.7442 13.2602 44.5732 13.2602C43.4022 13.2602 42.311 13.5529 41.2997 14.1384C40.2884 14.6973 39.4634 15.5356 38.8247 16.6534C38.2126 17.7445 37.9065 19.0486 37.9065 20.5656C37.9065 22.0825 38.2126 23.4132 38.8247 24.5576C39.4634 25.7019 40.2884 26.5802 41.2997 27.1923C42.3377 27.7778 43.4288 28.0705 44.5732 28.0705C45.7442 28.0705 46.8353 27.7778 47.8466 27.1923C48.8579 26.6068 49.6696 25.7552 50.2817 24.6374C50.9205 23.493 51.2398 22.1624 51.2398 20.6454ZM81.6084 9.66738L68.1154 42.0026H63.4048L67.8759 31.304L59.2132 9.66738H64.2831L70.4707 26.4338L76.8978 9.66738H81.6084ZM99.9236 3.91889V21.6035C99.9236 23.7059 100.469 25.2894 101.56 26.354C102.678 27.4185 104.222 27.9508 106.191 27.9508C108.187 27.9508 109.731 27.4185 110.822 26.354C111.94 25.2894 112.498 23.7059 112.498 21.6035V3.91889H117.049V21.5236C117.049 23.7858 116.557 25.7019 115.572 27.2721C114.588 28.8423 113.27 30.0133 111.62 30.7851C109.97 31.5569 108.147 31.9428 106.151 31.9428C104.155 31.9428 102.332 31.5569 100.682 30.7851C99.0586 30.0133 97.7679 28.8423 96.8098 27.2721C95.8517 25.7019 95.3727 23.7858 95.3727 21.5236V3.91889H99.9236ZM134.072 9.3081C135.802 9.3081 137.346 9.66738 138.703 10.3859C140.087 11.1045 141.165 12.169 141.937 13.5795C142.708 14.9901 143.094 16.6933 143.094 18.6893V31.6633H138.583V19.368C138.583 17.3986 138.091 15.8949 137.106 14.857C136.122 13.7925 134.778 13.2602 133.074 13.2602C131.371 13.2602 130.014 13.7925 129.003 14.857C128.018 15.8949 127.525 17.3986 127.525 19.368V31.6633H122.975V9.66738H127.525V12.1823C128.271 11.2775 129.215 10.5722 130.36 10.0666C131.531 9.56093 132.768 9.3081 134.072 9.3081ZM153.45 2.12249V31.6633H148.899V2.12249H153.45ZM161.74 6.75322C160.915 6.75322 160.223 6.47378 159.665 5.9149C159.106 5.35602 158.826 4.66407 158.826 3.83905C158.826 3.01404 159.106 2.32209 159.665 1.76321C160.223 1.20433 160.915 0.924889 161.74 0.924889C162.539 0.924889 163.217 1.20433 163.776 1.76321C164.335 2.32209 164.615 3.01404 164.615 3.83905C164.615 4.66407 164.335 5.35602 163.776 5.9149C163.217 6.47378 162.539 6.75322 161.74 6.75322ZM163.976 9.66738V31.6633H159.425V9.66738H163.976ZM196.578 9.3081C198.307 9.3081 199.851 9.66738 201.208 10.3859C202.592 11.1045 203.67 12.169 204.442 13.5795C205.24 14.9901 205.639 16.6933 205.639 18.6893V31.6633H201.128V19.368C201.128 17.3986 200.636 15.8949 199.651 14.857C198.667 13.7925 197.323 13.2602 195.619 13.2602C193.916 13.2602 192.559 13.7925 191.548 14.857C190.563 15.8949 190.071 17.3986 190.071 19.368V31.6633H185.56V19.368C185.56 17.3986 185.067 15.8949 184.083 14.857C183.098 13.7925 181.754 13.2602 180.051 13.2602C178.347 13.2602 176.99 13.7925 175.979 14.857C174.994 15.8949 174.502 17.3986 174.502 19.368V31.6633H169.951V9.66738H174.502V12.1823C175.247 11.2775 176.192 10.5722 177.336 10.0666C178.48 9.56093 179.705 9.3081 181.009 9.3081C182.765 9.3081 184.335 9.68069 185.719 10.4259C187.103 11.171 188.168 12.2489 188.913 13.6594C189.578 12.3287 190.616 11.2775 192.027 10.5057C193.437 9.7073 194.954 9.3081 196.578 9.3081ZM213.746 6.75322C212.921 6.75322 212.229 6.47378 211.67 5.9149C211.111 5.35602 210.831 4.66407 210.831 3.83905C210.831 3.01404 211.111 2.32209 211.67 1.76321C212.229 1.20433 212.921 0.924889 213.746 0.924889C214.544 0.924889 215.223 1.20433 215.782 1.76321C216.34 2.32209 216.62 3.01404 216.62 3.83905C216.62 4.66407 216.34 5.35602 215.782 5.9149C215.223 6.47378 214.544 6.75322 213.746 6.75322ZM215.981 9.66738V31.6633H211.43V9.66738H215.981ZM227.265 13.3799V25.5556C227.265 26.3806 227.452 26.9794 227.824 27.352C228.224 27.6979 228.889 27.8709 229.82 27.8709H232.615V31.6633H229.022C226.973 31.6633 225.402 31.1843 224.311 30.2262C223.22 29.2681 222.675 27.7112 222.675 25.5556V13.3799H220.08V9.66738H222.675V4.19833H227.265V9.66738H232.615V13.3799H227.265ZM256.969 20.1264C256.969 20.9514 256.916 21.6966 256.809 22.362H240.003C240.136 24.1184 240.788 25.5289 241.959 26.5935C243.13 27.658 244.567 28.1903 246.27 28.1903C248.719 28.1903 250.448 27.1657 251.46 25.1164H256.37C255.705 27.1391 254.494 28.8024 252.737 30.1064C251.007 31.3839 248.852 32.0226 246.27 32.0226C244.168 32.0226 242.278 31.5569 240.602 30.6254C238.951 29.6673 237.647 28.3367 236.689 26.6334C235.758 24.9035 235.292 22.9075 235.292 20.6454C235.292 18.3833 235.745 16.4006 236.649 14.6973C237.581 12.9674 238.872 11.6368 240.522 10.7053C242.198 9.77383 244.114 9.3081 246.27 9.3081C248.346 9.3081 250.196 9.76053 251.819 10.6654C253.442 11.5702 254.707 12.8477 255.611 14.4977C256.516 16.1211 256.969 17.9974 256.969 20.1264ZM252.218 18.6893C252.192 17.0127 251.593 15.6687 250.422 14.6574C249.251 13.6461 247.8 13.1404 246.071 13.1404C244.5 13.1404 243.156 13.6461 242.039 14.6574C240.921 15.6421 240.256 16.9861 240.043 18.6893H252.218ZM259.93 20.5656C259.93 18.3566 260.383 16.4006 261.288 14.6973C262.219 12.9941 263.47 11.6767 265.04 10.7452C266.637 9.78714 268.407 9.3081 270.349 9.3081C271.787 9.3081 273.197 9.62746 274.581 10.2662C275.991 10.8783 277.109 11.7033 277.934 12.7412V2.12249H282.525V31.6633H277.934V28.35C277.189 29.4145 276.151 30.2927 274.82 30.9847C273.516 31.6766 272.013 32.0226 270.31 32.0226C268.393 32.0226 266.637 31.5436 265.04 30.5855C263.47 29.6008 262.219 28.2435 261.288 26.5136C260.383 24.7572 259.93 22.7745 259.93 20.5656ZM277.934 20.6454C277.934 19.1284 277.615 17.8111 276.976 16.6933C276.364 15.5755 275.552 14.7239 274.541 14.1384C273.53 13.5529 272.439 13.2602 271.268 13.2602C270.097 13.2602 269.005 13.5529 267.994 14.1384C266.983 14.6973 266.158 15.5356 265.519 16.6534C264.907 17.7445 264.601 19.0486 264.601 20.5656C264.601 22.0825 264.907 23.4132 265.519 24.5576C266.158 25.7019 266.983 26.5802 267.994 27.1923C269.032 27.7778 270.123 28.0705 271.268 28.0705C272.439 28.0705 273.53 27.7778 274.541 27.1923C275.552 26.6068 276.364 25.7552 276.976 24.6374C277.615 23.493 277.934 22.1624 277.934 20.6454Z" fill="white"/>
</svg>
