<svg width="28" height="29" viewBox="0 0 28 29" fill="none" xmlns="http://www.w3.org/2000/svg">
<path d="M24.5808 26.0282L19.29 20.4351M19.29 20.4351C20.195 19.4783 20.9129 18.3425 21.4027 17.0925C21.8925 15.8425 22.1446 14.5027 22.1446 13.1497C22.1446 11.7967 21.8925 10.4569 21.4027 9.20692C20.9129 7.95689 20.195 6.8211 19.29 5.86437C18.385 4.90764 17.3106 4.14873 16.1281 3.63095C14.9457 3.11318 13.6783 2.84668 12.3985 2.84668C11.1186 2.84668 9.85124 3.11318 8.66879 3.63095C7.48633 4.14873 6.41193 4.90764 5.50692 5.86437C3.67916 7.79657 2.65234 10.4172 2.65234 13.1497C2.65234 15.8823 3.67916 18.5029 5.50692 20.4351C7.33467 22.3673 9.81363 23.4528 12.3985 23.4528C14.9833 23.4528 17.4623 22.3673 19.29 20.4351Z" stroke="black" stroke-width="5" stroke-linecap="round" stroke-linejoin="round"/>
</svg>
