<svg width="183" height="39" viewBox="0 0 183 39" fill="none" xmlns="http://www.w3.org/2000/svg">
<circle cx="19.3125" cy="19.5762" r="19" fill="white"/>
<path d="M22.8225 12.8962H24.7025V9.7162C23.7923 9.62155 22.8777 9.57482 21.9625 9.5762C19.2425 9.5762 17.3825 11.2362 17.3825 14.2762V16.8962H14.3125V20.4562H17.3825V29.5762H21.0625V20.4562H24.1225L24.5825 16.8962H21.0625V14.6262C21.0625 13.5762 21.3425 12.8962 22.8225 12.8962Z" fill="#130B5F"/>
<circle cx="67.3125" cy="19.5762" r="19" fill="white"/>
<path d="M78.2325 13.5762C77.4625 13.9262 76.6325 14.1562 75.7725 14.2662C76.6525 13.7362 77.3325 12.8962 77.6525 11.8862C76.8225 12.3862 75.9025 12.7362 74.9325 12.9362C74.1425 12.0762 73.0325 11.5762 71.7725 11.5762C69.4225 11.5762 67.5025 13.4962 67.5025 15.8662C67.5025 16.2062 67.5425 16.5362 67.6125 16.8462C64.0525 16.6662 60.8825 14.9562 58.7725 12.3662C58.4025 12.9962 58.1925 13.7362 58.1925 14.5162C58.1925 16.0062 58.9425 17.3262 60.1025 18.0762C59.3925 18.0762 58.7325 17.8762 58.1525 17.5762V17.6062C58.1525 19.6862 59.6325 21.4262 61.5925 21.8162C60.9632 21.9884 60.3026 22.0123 59.6625 21.8862C59.9341 22.7387 60.466 23.4846 61.1835 24.0191C61.901 24.5536 62.7679 24.8499 63.6625 24.8662C62.1461 26.0666 60.2665 26.7155 58.3325 26.7062C57.9925 26.7062 57.6525 26.6862 57.3125 26.6462C59.2125 27.8662 61.4725 28.5762 63.8925 28.5762C71.7725 28.5762 76.1025 22.0362 76.1025 16.3662C76.1025 16.1762 76.1025 15.9962 76.0925 15.8062C76.9325 15.2062 77.6525 14.4462 78.2325 13.5762Z" fill="#130B5F"/>
<circle cx="115.312" cy="19.5762" r="19" fill="white"/>
<path d="M115.298 15.4612C114.487 15.4612 113.694 15.7016 113.02 16.1521C112.345 16.6027 111.82 17.243 111.51 17.9922C111.199 18.7413 111.118 19.5657 111.276 20.361C111.434 21.1564 111.825 21.8869 112.398 22.4603C112.972 23.0337 113.702 23.4242 114.498 23.5824C115.293 23.7406 116.117 23.6594 116.867 23.3491C117.616 23.0388 118.256 22.5133 118.707 21.839C119.157 21.1648 119.398 20.3721 119.398 19.5612C119.399 19.0224 119.294 18.4886 119.088 17.9906C118.883 17.4926 118.581 17.0401 118.2 16.6591C117.819 16.2781 117.366 15.9762 116.868 15.7706C116.37 15.565 115.836 15.4599 115.298 15.4612ZM115.298 22.2312C114.769 22.2312 114.253 22.0746 113.814 21.7812C113.375 21.4878 113.033 21.0708 112.831 20.5829C112.629 20.0951 112.576 19.5582 112.679 19.0403C112.782 18.5224 113.036 18.0466 113.41 17.6732C113.783 17.2998 114.259 17.0455 114.777 16.9425C115.295 16.8395 115.831 16.8923 116.319 17.0944C116.807 17.2965 117.224 17.6387 117.518 18.0778C117.811 18.5169 117.967 19.0331 117.967 19.5612C117.967 20.2693 117.686 20.9484 117.185 21.4491C116.685 21.9499 116.006 22.2312 115.298 22.2312ZM120.527 15.2912C120.527 15.489 120.469 15.6823 120.359 15.8467C120.249 16.0112 120.093 16.1394 119.91 16.2151C119.727 16.2907 119.526 16.3105 119.332 16.272C119.138 16.2334 118.96 16.1381 118.82 15.9983C118.681 15.8584 118.585 15.6802 118.547 15.4863C118.508 15.2923 118.528 15.0912 118.604 14.9085C118.679 14.7258 118.807 14.5696 118.972 14.4597C119.136 14.3498 119.33 14.2912 119.527 14.2912C119.793 14.2912 120.047 14.3965 120.235 14.5841C120.422 14.7716 120.527 15.026 120.527 15.2912ZM123.238 16.2912C123.267 15.048 122.803 13.8438 121.947 12.9412C121.05 12.0749 119.845 11.6001 118.597 11.6212C117.297 11.5612 113.297 11.5612 111.997 11.6212C110.755 11.5943 109.551 12.0577 108.647 12.9112C107.792 13.8138 107.328 15.018 107.357 16.2612C107.297 17.5612 107.297 21.5612 107.357 22.8612C107.328 24.1043 107.792 25.3086 108.647 26.2112C109.551 27.0647 110.755 27.5281 111.997 27.5012C113.318 27.5812 117.278 27.5812 118.597 27.5012C119.841 27.5303 121.045 27.0665 121.947 26.2112C122.803 25.3086 123.267 24.1043 123.238 22.8612C123.298 21.5612 123.298 17.5612 123.238 16.2612V16.2912ZM121.537 24.2912C121.402 24.6351 121.197 24.9475 120.935 25.209C120.674 25.4704 120.361 25.6754 120.017 25.8112C118.465 26.125 116.878 26.2326 115.298 26.1312C113.72 26.2328 112.137 26.1252 110.588 25.8112C110.244 25.6754 109.931 25.4704 109.67 25.209C109.408 24.9475 109.203 24.6351 109.067 24.2912C108.648 23.2312 108.738 20.7312 108.738 19.5712C108.738 18.4112 108.648 15.9012 109.067 14.8512C109.199 14.5038 109.403 14.1881 109.665 13.9245C109.927 13.661 110.241 13.4554 110.588 13.3212C112.137 13.0071 113.72 12.8995 115.298 13.0012C116.878 12.8997 118.465 13.0073 120.017 13.3212C120.361 13.4569 120.674 13.6619 120.935 13.9234C121.197 14.1848 121.402 14.4972 121.537 14.8412C121.957 15.9012 121.857 18.4012 121.857 19.5612C121.857 20.7212 121.957 23.2312 121.537 24.2812V24.2912Z" fill="#130B5F"/>
<circle cx="163.312" cy="19.5762" r="19" fill="white"/>
<path d="M157.313 12.5772C157.312 13.1076 157.101 13.6162 156.726 13.9911C156.351 14.366 155.842 14.5764 155.312 14.5762C154.781 14.5759 154.272 14.3649 153.898 13.9897C153.523 13.6144 153.312 13.1056 153.313 12.5752C153.313 12.0447 153.524 11.5361 153.899 11.1613C154.274 10.7864 154.783 10.5759 155.314 10.5762C155.844 10.5764 156.353 10.7874 156.727 11.1627C157.102 11.5379 157.313 12.0467 157.313 12.5772ZM157.373 16.0572H153.373V28.5772H157.373V16.0572ZM163.693 16.0572H159.713V28.5772H163.653V22.0072C163.653 18.3472 168.422 18.0072 168.422 22.0072V28.5772H172.372V20.6472C172.372 14.4772 165.312 14.7072 163.653 17.7372L163.693 16.0572Z" fill="#130B5F"/>
</svg>
