<svg width="33" height="34" viewBox="0 0 33 34" fill="none" xmlns="http://www.w3.org/2000/svg">
<path d="M15.5745 1.21123C15.8266 0.400135 16.9746 0.400133 17.2267 1.21123L20.4844 11.6931C20.5968 12.0549 20.9316 12.3014 21.3105 12.3014H31.9316C32.7602 12.3014 33.1147 13.3541 32.4548 13.8553L23.797 20.4315C23.5072 20.6517 23.3861 21.0296 23.4941 21.3772L26.7854 31.967C27.0352 32.7708 26.1063 33.4217 25.436 32.9126L16.9239 26.447C16.6146 26.2121 16.1867 26.2121 15.8774 26.447L7.36522 32.9126C6.69492 33.4217 5.76606 32.7708 6.01588 31.967L9.30711 21.3772C9.41512 21.0296 9.29407 20.6517 9.00427 20.4316L0.346437 13.8553C-0.313459 13.3541 0.0410135 12.3014 0.869686 12.3014H11.4908C11.8696 12.3014 12.2044 12.0549 12.3169 11.6931L15.5745 1.21123Z" fill="#F98600"/>
</svg>
