<svg width="20" height="17" viewBox="0 0 20 17" fill="none" xmlns="http://www.w3.org/2000/svg">
<path d="M3.5 5.35675C3.89782 5.35675 4.27936 5.1987 4.56066 4.91736C4.84196 4.63603 5 4.25445 5 3.85659C5 3.45872 4.84196 3.07714 4.56066 2.79581C4.27936 2.51447 3.89782 2.35642 3.5 2.35642C3.10218 2.35642 2.72064 2.51447 2.43934 2.79581C2.15804 3.07714 2 3.45872 2 3.85659C2 4.25445 2.15804 4.63603 2.43934 4.91736C2.72064 5.1987 3.10218 5.35675 3.5 5.35675ZM15.41 7.93704C15.77 8.29707 16 8.79713 16 9.35719C16 9.90725 15.78 10.4073 15.41 10.7673L10.41 15.7679C10.2245 15.9543 10.004 16.1023 9.7612 16.2033C9.51837 16.3042 9.25798 16.3562 8.995 16.3562C8.73202 16.3562 8.47163 16.3042 8.2288 16.2033C7.98597 16.1023 7.76548 15.9543 7.58 15.7679L0.59 8.77713C0.22 8.40709 0 7.90703 0 7.35697V2.35642C0 1.2463 0.89 0.356201 2 0.356201H7C7.55 0.356201 8.05 0.576225 8.41 0.936265L15.41 7.93704ZM11.54 2.06639L12.54 1.06628L19.41 7.93704C19.78 8.29707 20 8.80713 20 9.35719C20 9.90725 19.78 10.4073 19.42 10.7673L14.04 16.1479L13.04 15.1478L18.75 9.35719L11.54 2.06639Z" fill="#FFBB00"/>
</svg>
