<svg width="14" height="18" viewBox="0 0 14 18" fill="none" xmlns="http://www.w3.org/2000/svg">
<path d="M7 9.01862C7.48125 9.01862 7.89337 8.84884 8.23637 8.50927C8.57879 8.17028 8.75 7.76257 8.75 7.28614C8.75 6.8097 8.57879 6.4017 8.23637 6.06214C7.89337 5.72315 7.48125 5.55365 7 5.55365C6.51875 5.55365 6.10692 5.72315 5.7645 6.06214C5.4215 6.4017 5.25 6.8097 5.25 7.28614C5.25 7.76257 5.4215 8.17028 5.7645 8.50927C6.10692 8.84884 6.51875 9.01862 7 9.01862ZM7 17.3562C6.88333 17.3562 6.76667 17.3345 6.65 17.2912C6.53333 17.2479 6.43125 17.1902 6.34375 17.118C4.21458 15.2556 2.625 13.5268 1.575 11.9318C0.525 10.3362 0 8.84537 0 7.45939C0 5.29378 0.703792 3.56852 2.11138 2.28359C3.51837 0.998664 5.14792 0.356201 7 0.356201C8.85208 0.356201 10.4816 0.998664 11.8886 2.28359C13.2962 3.56852 14 5.29378 14 7.45939C14 8.84537 13.475 10.3362 12.425 11.9318C11.375 13.5268 9.78542 15.2556 7.65625 17.118C7.56875 17.1902 7.46667 17.2479 7.35 17.2912C7.23333 17.3345 7.11667 17.3562 7 17.3562Z" fill="#FFBB00"/>
</svg>
